<mxfile host="" modified="2020-06-14T14:53:31.613Z" agent="5.0 (X11; Linux x86_64) AppleWebKit/537.36 (KHTML, like Gecko) code-oss/1.45.1 Chrome/78.0.3904.130 Electron/7.1.14 Safari/537.36" etag="lzwLj3PI85lJP_k6M-hO" version="13.1.3" pages="5">
    <diagram id="6hGFLwfOUW9BJ-s0fimq" name="Index">
        <mxGraphModel dx="1125" dy="806" grid="1" gridSize="10" guides="1" tooltips="1" connect="1" arrows="1" fold="1" page="1" pageScale="1" pageWidth="827" pageHeight="1169" math="0" shadow="0">
            <root>
                <mxCell id="0"/>
                <mxCell id="1" parent="0"/>
                <mxCell id="6" style="edgeStyle=orthogonalEdgeStyle;rounded=0;orthogonalLoop=1;jettySize=auto;html=1;entryX=0.5;entryY=0;entryDx=0;entryDy=0;" edge="1" parent="1" source="2" target="bZMmsCw2MI6Tk-kRLGE1-6">
                    <mxGeometry relative="1" as="geometry"/>
                </mxCell>
                <mxCell id="2" value="Expenses" style="whiteSpace=wrap;html=1;aspect=fixed;" parent="1" vertex="1">
                    <mxGeometry x="374" y="40" width="80" height="80" as="geometry"/>
                </mxCell>
                <mxCell id="bZMmsCw2MI6Tk-kRLGE1-6" value="&lt;div&gt;&lt;b&gt;&lt;font color=&quot;#00cc00&quot;&gt;Cost of Goods Sold&lt;/font&gt;&lt;/b&gt;. Cost of goods sold is the accumulated total of all costs used to create a product or service, which has been sold. These costs fall into the general sub-categories of direct labor, materials, and overhead..&lt;/div&gt;&lt;div&gt;&lt;br&gt;&lt;/div&gt;&lt;div&gt;&lt;b&gt;&lt;font color=&quot;#00cc00&quot;&gt;Advertising Expense&lt;/font&gt;&lt;/b&gt;. Advertising expense is a general ledger account in which is stored the consumed amount of advertising costs.&lt;/div&gt;&lt;div&gt;&lt;br&gt;&lt;/div&gt;&lt;div&gt;&lt;font color=&quot;#00cc00&quot;&gt;&lt;b&gt;Bank Fees&lt;/b&gt;&lt;/font&gt;.&amp;nbsp;&lt;/div&gt;&lt;div&gt;&lt;br&gt;&lt;/div&gt;&lt;div&gt;&lt;b&gt;&lt;font color=&quot;#00cc00&quot;&gt;Depreciation Expense&lt;/font&gt;&lt;/b&gt;. Depreciation expense is that portion of a fixed asset that has been considered consumed in the current period. This amount is then charged to expense. The intent of this charge is to gradually reduce the carrying amount of fixed assets as their value is consumed over time. This is a non-cash expense; that is, there is no associated cash outflow.&lt;/div&gt;&lt;div&gt;&lt;br&gt;&lt;/div&gt;&lt;div&gt;&lt;b&gt;&lt;font color=&quot;#00cc00&quot;&gt;Payroll Tax Expense&lt;/font&gt;&lt;/b&gt;. Payroll taxes are imposed by a government on employee wages and salaries. The taxes may be solely withheld from employee pay, or the employer may be required to match the withholding, or the employer is solely responsible for payment. In any case, the employer then remits the funds to the government. These taxes must also be paid by a self-employed person. There are a number of payroll taxes that may be imposed, including the following.&lt;/div&gt;&lt;div&gt;&lt;br&gt;&lt;/div&gt;&lt;div&gt;&lt;div&gt;&lt;font color=&quot;#ffff00&quot;&gt;&lt;b&gt;Social security&lt;/b&gt;&lt;/font&gt;. Used to fund the social security retirement program.&lt;/div&gt;&lt;div&gt;&lt;br&gt;&lt;/div&gt;&lt;div&gt;&lt;b&gt;&lt;font color=&quot;#ffff00&quot;&gt;Medicare&lt;/font&gt;&lt;/b&gt;. Used to fund the Medicare healthcare program for older citizens.&lt;/div&gt;&lt;div&gt;&lt;br&gt;&lt;/div&gt;&lt;div&gt;&lt;font color=&quot;#ffff00&quot;&gt;&lt;b&gt;Unemployment&lt;/b&gt;&lt;/font&gt;. Used to bolster an unemployment compensation fund for laid off workers.&lt;/div&gt;&lt;/div&gt;&lt;div&gt;&lt;br&gt;&lt;/div&gt;&lt;div&gt;&lt;b&gt;&lt;font color=&quot;#00ff00&quot;&gt;Rent Expense&lt;/font&gt;&lt;/b&gt;. Rent expense is an account that lists the cost of occupying rental property during a reporting period. This expense is one of the larger expenses reported by most organizations, after the cost of goods sold and compensation expense.&lt;/div&gt;&lt;div&gt;&lt;br&gt;&lt;/div&gt;&lt;div&gt;&lt;b&gt;&lt;font color=&quot;#00cc00&quot;&gt;Supplies Expense&lt;/font&gt;&lt;/b&gt;.&amp;nbsp;Supplies expense refers to the cost of consumables used during a reporting period. Depending on the type of business, this can be one of the larger corporate expenses. There are two types of supplies that may be charged to expense, which are:&lt;/div&gt;&lt;div&gt;&lt;br&gt;&lt;/div&gt;&lt;div&gt;&lt;div&gt;&lt;b&gt;&lt;font color=&quot;#ffff00&quot;&gt;Factory supplies&lt;/font&gt;&lt;/b&gt;. These supplies include maintenance materials, janitorial supplies, and items that are considered incidental to the production process. They are usually charged to expense as incurred, in which case the supplies expense account is included within the cost of goods sold category on the income statement. Under the accrual basis of accounting, some businesses record unused factory supplies in an asset account, such as Supplies on Hand, and then charge items to expense as they are consumed; this is only cost-effective if a large amount of factory supplies are retained in storage, since someone must manually track the quantities on hand. Factory supplies may also be included in an overhead cost pool and allocated to units produced.&lt;/div&gt;&lt;div&gt;&lt;br&gt;&lt;/div&gt;&lt;div&gt;&lt;div&gt;Examples of Factory Supplies&lt;/div&gt;&lt;div&gt;&lt;br&gt;&lt;/div&gt;&lt;div&gt;&lt;ul&gt;&lt;li&gt;Janitorial supplies&lt;/li&gt;&lt;li&gt;Machine lubricants&lt;/li&gt;&lt;li&gt;Rags&lt;/li&gt;&lt;li&gt;Solvents&lt;/li&gt;&lt;/ul&gt;&lt;/div&gt;&lt;/div&gt;&lt;div&gt;&lt;br&gt;&lt;/div&gt;&lt;div&gt;&lt;b&gt;&lt;font color=&quot;#ffff00&quot;&gt;Office supplies&lt;/font&gt;&lt;/b&gt;. These supplies include such items as paper, toner cartridges, and writing instruments. They are typically of such low cost that they are charged to expense as incurred. Under the accrual basis of accounting, some organizations record unused office supplies in an asset account, such as Supplies on Hand, and charge items to expense as they are consumed; however, the administrative effort required to do so does not usually justify the increased level of accounting accuracy, and so is not recommended.&lt;/div&gt;&lt;/div&gt;&lt;div&gt;&lt;br&gt;&lt;/div&gt;&lt;div&gt;&lt;div&gt;Examples of Office Supplies&lt;/div&gt;&lt;div&gt;&lt;ul&gt;&lt;li&gt;Desk supplies&lt;/li&gt;&lt;li&gt;Forms&lt;/li&gt;&lt;li&gt;Light bulbs&lt;/li&gt;&lt;li&gt;Paper&lt;/li&gt;&lt;li&gt;Pens and pencils&lt;/li&gt;&lt;li&gt;Toner cartridges&lt;/li&gt;&lt;li&gt;Writing instruments&lt;/li&gt;&lt;/ul&gt;&lt;/div&gt;&lt;/div&gt;&lt;div&gt;&lt;br&gt;&lt;/div&gt;&lt;div&gt;&lt;font color=&quot;#00cc00&quot;&gt;&lt;b&gt;Utilities Expense&lt;/b&gt;&lt;/font&gt;.&amp;nbsp;&lt;span&gt;Utilities expense is the cost consumed in a reporting period related to the following types of expenditures:&lt;/span&gt;&lt;div&gt;&lt;br&gt;&lt;/div&gt;&lt;div&gt;&lt;b&gt;&lt;font color=&quot;#ffff00&quot;&gt;Electricity&lt;/font&gt;&lt;/b&gt;&lt;/div&gt;&lt;div&gt;&lt;b&gt;&lt;font color=&quot;#ffff00&quot;&gt;&lt;br&gt;&lt;/font&gt;&lt;/b&gt;&lt;/div&gt;&lt;div&gt;&lt;b&gt;&lt;font color=&quot;#ffff00&quot;&gt;Heat (gas)&lt;/font&gt;&lt;/b&gt;&lt;/div&gt;&lt;div&gt;&lt;b&gt;&lt;font color=&quot;#ffff00&quot;&gt;&lt;br&gt;&lt;/font&gt;&lt;/b&gt;&lt;/div&gt;&lt;div&gt;&lt;b&gt;&lt;font color=&quot;#ffff00&quot;&gt;Sewer&lt;/font&gt;&lt;/b&gt;&lt;/div&gt;&lt;div&gt;&lt;b&gt;&lt;font color=&quot;#ffff00&quot;&gt;&lt;br&gt;&lt;/font&gt;&lt;/b&gt;&lt;/div&gt;&lt;span&gt;&lt;b&gt;&lt;font color=&quot;#ffff00&quot;&gt;Water&lt;/font&gt;&lt;/b&gt;&lt;/span&gt;.&lt;/div&gt;&lt;div&gt;&lt;br&gt;&lt;/div&gt;&lt;div&gt;&lt;font color=&quot;#00cc00&quot;&gt;&lt;b&gt;Wages&lt;/b&gt;&lt;/font&gt;. Wages expense is the hourly compensation cost incurred by a business for its hourly workers. This can be one of the largest expenses incurred by a business, especially in the services and production industries where there are many hourly employees.&lt;/div&gt;&lt;div&gt;&lt;br&gt;&lt;/div&gt;&lt;div&gt;&lt;b&gt;&lt;font color=&quot;#00cc00&quot;&gt;Other&lt;/font&gt;&lt;/b&gt;&lt;/div&gt;" style="rounded=0;whiteSpace=wrap;html=1;align=left;" parent="1" vertex="1">
                    <mxGeometry x="172" y="150" width="484" height="1310" as="geometry"/>
                </mxCell>
            </root>
        </mxGraphModel>
    </diagram>
    <diagram id="k4gzNj06NKUBnNSES0GV" name="Database Structure">
        <mxGraphModel dx="1125" dy="806" grid="1" gridSize="10" guides="1" tooltips="1" connect="1" arrows="1" fold="1" page="1" pageScale="1" pageWidth="3300" pageHeight="4681" math="0" shadow="0">
            <root>
                <mxCell id="ZLIagWWz0gJrRWG0zaH9-0"/>
                <mxCell id="ZLIagWWz0gJrRWG0zaH9-1" parent="ZLIagWWz0gJrRWG0zaH9-0"/>
                <mxCell id="0SvQrCjive3bnL10Y1ml-0" style="edgeStyle=orthogonalEdgeStyle;rounded=0;orthogonalLoop=1;jettySize=auto;html=1;entryX=0.5;entryY=0;entryDx=0;entryDy=0;" parent="ZLIagWWz0gJrRWG0zaH9-1" source="0SvQrCjive3bnL10Y1ml-1" target="0SvQrCjive3bnL10Y1ml-2" edge="1">
                    <mxGeometry relative="1" as="geometry"/>
                </mxCell>
                <mxCell id="0SvQrCjive3bnL10Y1ml-1" value="Apps" style="whiteSpace=wrap;html=1;aspect=fixed;strokeColor=#5B60F0;" parent="ZLIagWWz0gJrRWG0zaH9-1" vertex="1">
                    <mxGeometry x="300" y="80" width="80" height="80" as="geometry"/>
                </mxCell>
                <mxCell id="0SvQrCjive3bnL10Y1ml-9" value="" style="edgeStyle=orthogonalEdgeStyle;rounded=0;orthogonalLoop=1;jettySize=auto;html=1;" parent="ZLIagWWz0gJrRWG0zaH9-1" source="0SvQrCjive3bnL10Y1ml-2" target="0SvQrCjive3bnL10Y1ml-4" edge="1">
                    <mxGeometry relative="1" as="geometry"/>
                </mxCell>
                <mxCell id="0SvQrCjive3bnL10Y1ml-2" value="CRM" style="ellipse;whiteSpace=wrap;html=1;aspect=fixed;strokeColor=#F05C26;" parent="ZLIagWWz0gJrRWG0zaH9-1" vertex="1">
                    <mxGeometry x="300" y="190" width="80" height="80" as="geometry"/>
                </mxCell>
                <mxCell id="0SvQrCjive3bnL10Y1ml-3" style="edgeStyle=orthogonalEdgeStyle;rounded=0;orthogonalLoop=1;jettySize=auto;html=1;entryX=0.5;entryY=0;entryDx=0;entryDy=0;" parent="ZLIagWWz0gJrRWG0zaH9-1" source="0SvQrCjive3bnL10Y1ml-4" target="0SvQrCjive3bnL10Y1ml-5" edge="1">
                    <mxGeometry relative="1" as="geometry"/>
                </mxCell>
                <mxCell id="0SvQrCjive3bnL10Y1ml-4" value="** Business ID **" style="whiteSpace=wrap;html=1;aspect=fixed;strokeColor=#F05C26;" parent="ZLIagWWz0gJrRWG0zaH9-1" vertex="1">
                    <mxGeometry x="285" y="310" width="110" height="110" as="geometry"/>
                </mxCell>
                <mxCell id="0SvQrCjive3bnL10Y1ml-11" value="" style="edgeStyle=orthogonalEdgeStyle;rounded=0;orthogonalLoop=1;jettySize=auto;html=1;" parent="ZLIagWWz0gJrRWG0zaH9-1" source="0SvQrCjive3bnL10Y1ml-6" edge="1">
                    <mxGeometry relative="1" as="geometry">
                        <mxPoint x="340" y="590" as="targetPoint"/>
                    </mxGeometry>
                </mxCell>
                <mxCell id="0SvQrCjive3bnL10Y1ml-5" value="Expense" style="whiteSpace=wrap;html=1;aspect=fixed;strokeColor=#F05C26;" parent="ZLIagWWz0gJrRWG0zaH9-1" vertex="1">
                    <mxGeometry x="315" y="462.5" width="50" height="50" as="geometry"/>
                </mxCell>
                <mxCell id="0SvQrCjive3bnL10Y1ml-13" value="" style="edgeStyle=orthogonalEdgeStyle;rounded=0;orthogonalLoop=1;jettySize=auto;html=1;" parent="ZLIagWWz0gJrRWG0zaH9-1" source="0SvQrCjive3bnL10Y1ml-7" target="0SvQrCjive3bnL10Y1ml-8" edge="1">
                    <mxGeometry relative="1" as="geometry"/>
                </mxCell>
                <mxCell id="0SvQrCjive3bnL10Y1ml-7" value="** Expense ID **" style="whiteSpace=wrap;html=1;aspect=fixed;strokeColor=#005700;fillColor=#008a00;fontColor=#ffffff;" parent="ZLIagWWz0gJrRWG0zaH9-1" vertex="1">
                    <mxGeometry x="320" y="590" width="40" height="40" as="geometry"/>
                </mxCell>
                <mxCell id="b6DJt6rnyvktnEXb7S_j-8" style="edgeStyle=orthogonalEdgeStyle;rounded=0;orthogonalLoop=1;jettySize=auto;html=1;entryX=0;entryY=0.388;entryDx=0;entryDy=0;entryPerimeter=0;" parent="ZLIagWWz0gJrRWG0zaH9-1" source="0SvQrCjive3bnL10Y1ml-8" target="b6DJt6rnyvktnEXb7S_j-1" edge="1">
                    <mxGeometry relative="1" as="geometry"/>
                </mxCell>
                <mxCell id="0SvQrCjive3bnL10Y1ml-8" value="&lt;ul&gt;&lt;li&gt;asset_name&lt;/li&gt;&lt;li&gt;asset_type&lt;/li&gt;&lt;li&gt;branch&lt;/li&gt;&lt;li&gt;created_month&lt;/li&gt;&lt;li&gt;current_asset&lt;/li&gt;&lt;li&gt;description&lt;/li&gt;&lt;li&gt;documentation&lt;/li&gt;&lt;li&gt;inventory&lt;/li&gt;&lt;li&gt;last_active&lt;/li&gt;&lt;li&gt;price&lt;/li&gt;&lt;li&gt;quantity&lt;/li&gt;&lt;li&gt;reference&lt;/li&gt;&lt;li&gt;timestamp&lt;/li&gt;&lt;li&gt;uid&lt;/li&gt;&lt;/ul&gt;" style="rounded=1;whiteSpace=wrap;html=1;strokeColor=#F05C26;align=left;" parent="ZLIagWWz0gJrRWG0zaH9-1" vertex="1">
                    <mxGeometry x="275" y="660" width="130" height="240" as="geometry"/>
                </mxCell>
                <mxCell id="0SvQrCjive3bnL10Y1ml-6" value="Expense" style="whiteSpace=wrap;html=1;aspect=fixed;strokeColor=#F05C26;" parent="ZLIagWWz0gJrRWG0zaH9-1" vertex="1">
                    <mxGeometry x="315" y="525" width="50" height="50" as="geometry"/>
                </mxCell>
                <mxCell id="0SvQrCjive3bnL10Y1ml-12" value="" style="edgeStyle=orthogonalEdgeStyle;rounded=0;orthogonalLoop=1;jettySize=auto;html=1;" parent="ZLIagWWz0gJrRWG0zaH9-1" source="0SvQrCjive3bnL10Y1ml-5" target="0SvQrCjive3bnL10Y1ml-6" edge="1">
                    <mxGeometry relative="1" as="geometry">
                        <mxPoint x="340" y="510" as="sourcePoint"/>
                        <mxPoint x="340" y="590" as="targetPoint"/>
                    </mxGeometry>
                </mxCell>
                <mxCell id="b6DJt6rnyvktnEXb7S_j-0" style="edgeStyle=orthogonalEdgeStyle;rounded=0;orthogonalLoop=1;jettySize=auto;html=1;entryX=0.5;entryY=0;entryDx=0;entryDy=0;" parent="ZLIagWWz0gJrRWG0zaH9-1" source="b6DJt6rnyvktnEXb7S_j-1" target="b6DJt6rnyvktnEXb7S_j-3" edge="1">
                    <mxGeometry relative="1" as="geometry"/>
                </mxCell>
                <mxCell id="b6DJt6rnyvktnEXb7S_j-17" style="edgeStyle=orthogonalEdgeStyle;rounded=0;orthogonalLoop=1;jettySize=auto;html=1;entryX=0;entryY=0.5;entryDx=0;entryDy=0;" parent="ZLIagWWz0gJrRWG0zaH9-1" source="b6DJt6rnyvktnEXb7S_j-1" target="b6DJt6rnyvktnEXb7S_j-10" edge="1">
                    <mxGeometry relative="1" as="geometry"/>
                </mxCell>
                <mxCell id="b6DJt6rnyvktnEXb7S_j-1" value="Apps" style="whiteSpace=wrap;html=1;aspect=fixed;strokeColor=#5B60F0;" parent="ZLIagWWz0gJrRWG0zaH9-1" vertex="1">
                    <mxGeometry x="605" y="80" width="80" height="80" as="geometry"/>
                </mxCell>
                <mxCell id="b6DJt6rnyvktnEXb7S_j-2" value="" style="edgeStyle=orthogonalEdgeStyle;rounded=0;orthogonalLoop=1;jettySize=auto;html=1;" parent="ZLIagWWz0gJrRWG0zaH9-1" source="b6DJt6rnyvktnEXb7S_j-3" target="b6DJt6rnyvktnEXb7S_j-5" edge="1">
                    <mxGeometry relative="1" as="geometry"/>
                </mxCell>
                <mxCell id="b6DJt6rnyvktnEXb7S_j-3" value="CRM" style="ellipse;whiteSpace=wrap;html=1;aspect=fixed;strokeColor=#F05C26;" parent="ZLIagWWz0gJrRWG0zaH9-1" vertex="1">
                    <mxGeometry x="605" y="190" width="80" height="80" as="geometry"/>
                </mxCell>
                <mxCell id="b6DJt6rnyvktnEXb7S_j-4" style="edgeStyle=orthogonalEdgeStyle;rounded=0;orthogonalLoop=1;jettySize=auto;html=1;entryX=0.5;entryY=0;entryDx=0;entryDy=0;" parent="ZLIagWWz0gJrRWG0zaH9-1" source="b6DJt6rnyvktnEXb7S_j-5" target="b6DJt6rnyvktnEXb7S_j-6" edge="1">
                    <mxGeometry relative="1" as="geometry"/>
                </mxCell>
                <mxCell id="b6DJt6rnyvktnEXb7S_j-5" value="** Business ID **" style="whiteSpace=wrap;html=1;aspect=fixed;strokeColor=#F05C26;" parent="ZLIagWWz0gJrRWG0zaH9-1" vertex="1">
                    <mxGeometry x="590" y="310" width="110" height="110" as="geometry"/>
                </mxCell>
                <mxCell id="b6DJt6rnyvktnEXb7S_j-19" value="" style="edgeStyle=orthogonalEdgeStyle;rounded=0;orthogonalLoop=1;jettySize=auto;html=1;" parent="ZLIagWWz0gJrRWG0zaH9-1" source="b6DJt6rnyvktnEXb7S_j-6" target="b6DJt6rnyvktnEXb7S_j-18" edge="1">
                    <mxGeometry relative="1" as="geometry"/>
                </mxCell>
                <mxCell id="b6DJt6rnyvktnEXb7S_j-6" value="stats" style="whiteSpace=wrap;html=1;aspect=fixed;strokeColor=#F05C26;" parent="ZLIagWWz0gJrRWG0zaH9-1" vertex="1">
                    <mxGeometry x="625" y="470" width="40" height="40" as="geometry"/>
                </mxCell>
                <mxCell id="b6DJt6rnyvktnEXb7S_j-21" value="" style="edgeStyle=orthogonalEdgeStyle;rounded=0;orthogonalLoop=1;jettySize=auto;html=1;" parent="ZLIagWWz0gJrRWG0zaH9-1" source="b6DJt6rnyvktnEXb7S_j-18" target="b6DJt6rnyvktnEXb7S_j-20" edge="1">
                    <mxGeometry relative="1" as="geometry"/>
                </mxCell>
                <mxCell id="b6DJt6rnyvktnEXb7S_j-23" value="" style="edgeStyle=orthogonalEdgeStyle;rounded=0;orthogonalLoop=1;jettySize=auto;html=1;" parent="ZLIagWWz0gJrRWG0zaH9-1" source="b6DJt6rnyvktnEXb7S_j-18" target="b6DJt6rnyvktnEXb7S_j-22" edge="1">
                    <mxGeometry relative="1" as="geometry"/>
                </mxCell>
                <mxCell id="b6DJt6rnyvktnEXb7S_j-18" value="total" style="whiteSpace=wrap;html=1;aspect=fixed;strokeColor=#F05C26;" parent="ZLIagWWz0gJrRWG0zaH9-1" vertex="1">
                    <mxGeometry x="625" y="530" width="40" height="40" as="geometry"/>
                </mxCell>
                <mxCell id="b6DJt6rnyvktnEXb7S_j-26" style="edgeStyle=orthogonalEdgeStyle;rounded=0;orthogonalLoop=1;jettySize=auto;html=1;" parent="ZLIagWWz0gJrRWG0zaH9-1" source="b6DJt6rnyvktnEXb7S_j-22" edge="1">
                    <mxGeometry relative="1" as="geometry">
                        <mxPoint x="660" y="720" as="targetPoint"/>
                        <Array as="points">
                            <mxPoint x="688" y="688"/>
                            <mxPoint x="660" y="688"/>
                        </Array>
                    </mxGeometry>
                </mxCell>
                <mxCell id="b6DJt6rnyvktnEXb7S_j-22" value="total" style="whiteSpace=wrap;html=1;aspect=fixed;strokeColor=#F05C26;" parent="ZLIagWWz0gJrRWG0zaH9-1" vertex="1">
                    <mxGeometry x="665" y="610" width="45" height="45" as="geometry"/>
                </mxCell>
                <mxCell id="b6DJt6rnyvktnEXb7S_j-25" style="edgeStyle=orthogonalEdgeStyle;rounded=0;orthogonalLoop=1;jettySize=auto;html=1;entryX=0.5;entryY=0;entryDx=0;entryDy=0;" parent="ZLIagWWz0gJrRWG0zaH9-1" source="b6DJt6rnyvktnEXb7S_j-20" target="b6DJt6rnyvktnEXb7S_j-24" edge="1">
                    <mxGeometry relative="1" as="geometry"/>
                </mxCell>
                <mxCell id="b6DJt6rnyvktnEXb7S_j-20" value="created date" style="whiteSpace=wrap;html=1;aspect=fixed;strokeColor=#F05C26;" parent="ZLIagWWz0gJrRWG0zaH9-1" vertex="1">
                    <mxGeometry x="585" y="610" width="45" height="45" as="geometry"/>
                </mxCell>
                <mxCell id="b6DJt6rnyvktnEXb7S_j-9" style="edgeStyle=orthogonalEdgeStyle;rounded=0;orthogonalLoop=1;jettySize=auto;html=1;entryX=0.5;entryY=0;entryDx=0;entryDy=0;" parent="ZLIagWWz0gJrRWG0zaH9-1" source="b6DJt6rnyvktnEXb7S_j-10" target="b6DJt6rnyvktnEXb7S_j-12" edge="1">
                    <mxGeometry relative="1" as="geometry"/>
                </mxCell>
                <mxCell id="b6DJt6rnyvktnEXb7S_j-10" value="Apps" style="whiteSpace=wrap;html=1;aspect=fixed;strokeColor=#5B60F0;" parent="ZLIagWWz0gJrRWG0zaH9-1" vertex="1">
                    <mxGeometry x="875" y="80" width="80" height="80" as="geometry"/>
                </mxCell>
                <mxCell id="b6DJt6rnyvktnEXb7S_j-11" value="" style="edgeStyle=orthogonalEdgeStyle;rounded=0;orthogonalLoop=1;jettySize=auto;html=1;" parent="ZLIagWWz0gJrRWG0zaH9-1" source="b6DJt6rnyvktnEXb7S_j-12" target="b6DJt6rnyvktnEXb7S_j-14" edge="1">
                    <mxGeometry relative="1" as="geometry"/>
                </mxCell>
                <mxCell id="b6DJt6rnyvktnEXb7S_j-12" value="CRM" style="ellipse;whiteSpace=wrap;html=1;aspect=fixed;strokeColor=#F05C26;" parent="ZLIagWWz0gJrRWG0zaH9-1" vertex="1">
                    <mxGeometry x="875" y="190" width="80" height="80" as="geometry"/>
                </mxCell>
                <mxCell id="b6DJt6rnyvktnEXb7S_j-13" style="edgeStyle=orthogonalEdgeStyle;rounded=0;orthogonalLoop=1;jettySize=auto;html=1;entryX=0.5;entryY=0;entryDx=0;entryDy=0;" parent="ZLIagWWz0gJrRWG0zaH9-1" source="b6DJt6rnyvktnEXb7S_j-14" target="b6DJt6rnyvktnEXb7S_j-15" edge="1">
                    <mxGeometry relative="1" as="geometry"/>
                </mxCell>
                <mxCell id="b6DJt6rnyvktnEXb7S_j-14" value="** Business ID **" style="whiteSpace=wrap;html=1;aspect=fixed;strokeColor=#F05C26;" parent="ZLIagWWz0gJrRWG0zaH9-1" vertex="1">
                    <mxGeometry x="860" y="310" width="110" height="110" as="geometry"/>
                </mxCell>
                <mxCell id="b6DJt6rnyvktnEXb7S_j-28" value="" style="edgeStyle=orthogonalEdgeStyle;rounded=0;orthogonalLoop=1;jettySize=auto;html=1;" parent="ZLIagWWz0gJrRWG0zaH9-1" source="b6DJt6rnyvktnEXb7S_j-15" target="b6DJt6rnyvktnEXb7S_j-27" edge="1">
                    <mxGeometry relative="1" as="geometry"/>
                </mxCell>
                <mxCell id="b6DJt6rnyvktnEXb7S_j-15" value="Activity Timeline" style="whiteSpace=wrap;html=1;aspect=fixed;strokeColor=#F05C26;" parent="ZLIagWWz0gJrRWG0zaH9-1" vertex="1">
                    <mxGeometry x="892.5" y="465" width="45" height="45" as="geometry"/>
                </mxCell>
                <mxCell id="b6DJt6rnyvktnEXb7S_j-30" value="" style="edgeStyle=orthogonalEdgeStyle;rounded=0;orthogonalLoop=1;jettySize=auto;html=1;" parent="ZLIagWWz0gJrRWG0zaH9-1" source="b6DJt6rnyvktnEXb7S_j-27" target="b6DJt6rnyvktnEXb7S_j-29" edge="1">
                    <mxGeometry relative="1" as="geometry"/>
                </mxCell>
                <mxCell id="b6DJt6rnyvktnEXb7S_j-32" style="edgeStyle=orthogonalEdgeStyle;rounded=0;orthogonalLoop=1;jettySize=auto;html=1;entryX=0.5;entryY=0;entryDx=0;entryDy=0;" parent="ZLIagWWz0gJrRWG0zaH9-1" source="b6DJt6rnyvktnEXb7S_j-27" target="b6DJt6rnyvktnEXb7S_j-31" edge="1">
                    <mxGeometry relative="1" as="geometry"/>
                </mxCell>
                <mxCell id="b6DJt6rnyvktnEXb7S_j-27" value="Activity Timeline" style="whiteSpace=wrap;html=1;aspect=fixed;strokeColor=#F05C26;" parent="ZLIagWWz0gJrRWG0zaH9-1" vertex="1">
                    <mxGeometry x="892.5" y="530" width="45" height="45" as="geometry"/>
                </mxCell>
                <mxCell id="b6DJt6rnyvktnEXb7S_j-34" style="edgeStyle=orthogonalEdgeStyle;rounded=0;orthogonalLoop=1;jettySize=auto;html=1;entryX=0.5;entryY=0;entryDx=0;entryDy=0;" parent="ZLIagWWz0gJrRWG0zaH9-1" source="b6DJt6rnyvktnEXb7S_j-29" target="b6DJt6rnyvktnEXb7S_j-33" edge="1">
                    <mxGeometry relative="1" as="geometry"/>
                </mxCell>
                <mxCell id="b6DJt6rnyvktnEXb7S_j-29" value="user ID" style="whiteSpace=wrap;html=1;aspect=fixed;strokeColor=#F05C26;" parent="ZLIagWWz0gJrRWG0zaH9-1" vertex="1">
                    <mxGeometry x="847.5" y="615" width="45" height="45" as="geometry"/>
                </mxCell>
                <mxCell id="b6DJt6rnyvktnEXb7S_j-24" value="&lt;ul&gt;&lt;li&gt;assets_value&lt;/li&gt;&lt;li&gt;assets_data&lt;/li&gt;&lt;li&gt;assets_last_active&lt;/li&gt;&lt;li&gt;current_assets_value&lt;/li&gt;&lt;li&gt;current_assets_data&lt;/li&gt;&lt;li&gt;current_assets_last_active&lt;/li&gt;&lt;li&gt;fixed_assets_value&lt;/li&gt;&lt;li&gt;fixed_assets_data&lt;/li&gt;&lt;li&gt;fixed_assets_last_active&lt;/li&gt;&lt;li&gt;{asset_type_value}&lt;/li&gt;&lt;li&gt;{asset_type_data}&lt;/li&gt;&lt;li&gt;{asset_type_last_active}&lt;/li&gt;&lt;/ul&gt;" style="rounded=1;whiteSpace=wrap;html=1;strokeColor=#F05C26;align=left;" parent="ZLIagWWz0gJrRWG0zaH9-1" vertex="1">
                    <mxGeometry x="570" y="720" width="200" height="250" as="geometry"/>
                </mxCell>
                <mxCell id="b6DJt6rnyvktnEXb7S_j-35" style="edgeStyle=orthogonalEdgeStyle;rounded=0;orthogonalLoop=1;jettySize=auto;html=1;entryX=0.5;entryY=0;entryDx=0;entryDy=0;" parent="ZLIagWWz0gJrRWG0zaH9-1" source="b6DJt6rnyvktnEXb7S_j-31" target="b6DJt6rnyvktnEXb7S_j-33" edge="1">
                    <mxGeometry relative="1" as="geometry"/>
                </mxCell>
                <mxCell id="b6DJt6rnyvktnEXb7S_j-31" value="company" style="whiteSpace=wrap;html=1;aspect=fixed;strokeColor=#F05C26;" parent="ZLIagWWz0gJrRWG0zaH9-1" vertex="1">
                    <mxGeometry x="937.5" y="615" width="45" height="45" as="geometry"/>
                </mxCell>
                <mxCell id="b6DJt6rnyvktnEXb7S_j-33" value="&lt;ul&gt;&lt;li&gt;assetID&lt;/li&gt;&lt;li&gt;asset_type&lt;/li&gt;&lt;li&gt;created_date&lt;/li&gt;&lt;li&gt;reference&lt;/li&gt;&lt;li&gt;activity type&lt;/li&gt;&lt;li&gt;book entries&lt;/li&gt;&lt;/ul&gt;" style="rounded=1;whiteSpace=wrap;html=1;strokeColor=#F05C26;align=left;" parent="ZLIagWWz0gJrRWG0zaH9-1" vertex="1">
                    <mxGeometry x="857.5" y="710" width="125" height="120" as="geometry"/>
                </mxCell>
            </root>
        </mxGraphModel>
    </diagram>
    <diagram id="_1yc6M-A12aUXOLZ_90K" name="Functions">
        &#xa;        
        <mxGraphModel dx="1365" dy="806" grid="1" gridSize="10" guides="1" tooltips="1" connect="1" arrows="1" fold="1" page="1" pageScale="1" pageWidth="3300" pageHeight="4681" math="0" shadow="0">
            &#xa;            
            <root>
                &#xa;                
                <mxCell id="M4IMHjmusEXuxh6YqbXx-0"/>
                &#xa;                
                <mxCell id="M4IMHjmusEXuxh6YqbXx-1" parent="M4IMHjmusEXuxh6YqbXx-0"/>
                &#xa;                
                <mxCell id="OARu9WSy1Fvda7pu0Fav-2" value="" style="edgeStyle=orthogonalEdgeStyle;rounded=0;orthogonalLoop=1;jettySize=auto;html=1;" parent="M4IMHjmusEXuxh6YqbXx-1" source="OARu9WSy1Fvda7pu0Fav-0" target="OARu9WSy1Fvda7pu0Fav-1" edge="1">
                    &#xa;                    
                    <mxGeometry relative="1" as="geometry"/>
                    &#xa;                
                </mxCell>
                &#xa;                
                <mxCell id="OARu9WSy1Fvda7pu0Fav-0" value="&lt;div style=&quot;color: rgb(212 , 212 , 212) ; background-color: rgb(30 , 30 , 30) ; font-family: &amp;#34;droid sans mono&amp;#34; , monospace , monospace , &amp;#34;droid sans fallback&amp;#34; ; font-size: 14px ; line-height: 19px&quot;&gt;&lt;span style=&quot;color: #9cdcfe&quot;&gt;AssetsUpdate&lt;/span&gt;&lt;/div&gt;&lt;div style=&quot;color: rgb(212 , 212 , 212) ; background-color: rgb(30 , 30 , 30) ; font-family: &amp;#34;droid sans mono&amp;#34; , monospace , monospace , &amp;#34;droid sans fallback&amp;#34; ; font-size: 14px ; line-height: 19px&quot;&gt;&lt;div style=&quot;font-family: &amp;#34;droid sans mono&amp;#34; , monospace , monospace , &amp;#34;droid sans fallback&amp;#34; ; line-height: 19px&quot;&gt;&lt;span style=&quot;color: #ce9178&quot;&gt;apps/crm/{businessID}/assets/assets/{assetID}&lt;/span&gt;&lt;/div&gt;&lt;/div&gt;" style="shape=process;whiteSpace=wrap;html=1;backgroundOutline=1;" parent="M4IMHjmusEXuxh6YqbXx-1" vertex="1">
                    &#xa;                    
                    <mxGeometry x="230" y="70" width="490" height="60" as="geometry"/>
                    &#xa;                
                </mxCell>
                &#xa;                
                <mxCell id="OARu9WSy1Fvda7pu0Fav-5" style="edgeStyle=orthogonalEdgeStyle;rounded=0;orthogonalLoop=1;jettySize=auto;html=1;" parent="M4IMHjmusEXuxh6YqbXx-1" source="OARu9WSy1Fvda7pu0Fav-1" target="OARu9WSy1Fvda7pu0Fav-3" edge="1">
                    &#xa;                    
                    <mxGeometry relative="1" as="geometry"/>
                    &#xa;                
                </mxCell>
                &#xa;                
                <mxCell id="OARu9WSy1Fvda7pu0Fav-6" style="edgeStyle=orthogonalEdgeStyle;rounded=0;orthogonalLoop=1;jettySize=auto;html=1;entryX=0.5;entryY=0;entryDx=0;entryDy=0;" parent="M4IMHjmusEXuxh6YqbXx-1" source="OARu9WSy1Fvda7pu0Fav-1" target="OARu9WSy1Fvda7pu0Fav-4" edge="1">
                    &#xa;                    
                    <mxGeometry relative="1" as="geometry"/>
                    &#xa;                
                </mxCell>
                &#xa;                
                <mxCell id="OARu9WSy1Fvda7pu0Fav-1" value="&lt;div style=&quot;color: rgb(212 , 212 , 212) ; background-color: rgb(30 , 30 , 30) ; font-family: &amp;#34;droid sans mono&amp;#34; , monospace , monospace , &amp;#34;droid sans fallback&amp;#34; ; font-size: 14px ; line-height: 19px&quot;&gt;&lt;span style=&quot;color: #9cdcfe&quot;&gt;AssetsUpdate&lt;/span&gt;&lt;/div&gt;&lt;div style=&quot;color: rgb(212 , 212 , 212) ; background-color: rgb(30 , 30 , 30) ; font-family: &amp;#34;droid sans mono&amp;#34; , monospace , monospace , &amp;#34;droid sans fallback&amp;#34; ; font-size: 14px ; line-height: 19px&quot;&gt;&lt;div style=&quot;font-family: &amp;#34;droid sans mono&amp;#34; , monospace , monospace , &amp;#34;droid sans fallback&amp;#34; ; line-height: 19px&quot;&gt;&lt;span style=&quot;color: #ce9178&quot;&gt;apps/crm/{businessID}/stats/total/book&lt;/span&gt;&lt;/div&gt;&lt;/div&gt;" style="shape=process;whiteSpace=wrap;html=1;backgroundOutline=1;" parent="M4IMHjmusEXuxh6YqbXx-1" vertex="1">
                    &#xa;                    
                    <mxGeometry x="230" y="210" width="490" height="60" as="geometry"/>
                    &#xa;                
                </mxCell>
                &#xa;                
                <mxCell id="OARu9WSy1Fvda7pu0Fav-3" value="doc exist" style="rounded=0;whiteSpace=wrap;html=1;" parent="M4IMHjmusEXuxh6YqbXx-1" vertex="1">
                    &#xa;                    
                    <mxGeometry x="230" y="320" width="120" height="60" as="geometry"/>
                    &#xa;                
                </mxCell>
                &#xa;                
                <mxCell id="S0295E1cDuHSQ-eF17qB-1" style="edgeStyle=orthogonalEdgeStyle;rounded=0;orthogonalLoop=1;jettySize=auto;html=1;entryX=0.5;entryY=0;entryDx=0;entryDy=0;" parent="M4IMHjmusEXuxh6YqbXx-1" source="OARu9WSy1Fvda7pu0Fav-4" target="OARu9WSy1Fvda7pu0Fav-8" edge="1">
                    &#xa;                    
                    <mxGeometry relative="1" as="geometry"/>
                    &#xa;                
                </mxCell>
                &#xa;                
                <mxCell id="OARu9WSy1Fvda7pu0Fav-4" value="doc doesn't exist" style="rounded=0;whiteSpace=wrap;html=1;" parent="M4IMHjmusEXuxh6YqbXx-1" vertex="1">
                    &#xa;                    
                    <mxGeometry x="600" y="320" width="120" height="60" as="geometry"/>
                    &#xa;                
                </mxCell>
                &#xa;                
                <mxCell id="S0295E1cDuHSQ-eF17qB-3" style="edgeStyle=orthogonalEdgeStyle;rounded=0;orthogonalLoop=1;jettySize=auto;html=1;entryX=0.5;entryY=0;entryDx=0;entryDy=0;" parent="M4IMHjmusEXuxh6YqbXx-1" source="OARu9WSy1Fvda7pu0Fav-8" target="S0295E1cDuHSQ-eF17qB-2" edge="1">
                    &#xa;                    
                    <mxGeometry relative="1" as="geometry"/>
                    &#xa;                
                </mxCell>
                &#xa;                
                <mxCell id="pYuZtsfAnVX9mvJOmRnT-2" style="edgeStyle=orthogonalEdgeStyle;rounded=0;orthogonalLoop=1;jettySize=auto;html=1;" parent="M4IMHjmusEXuxh6YqbXx-1" source="OARu9WSy1Fvda7pu0Fav-8" target="pYuZtsfAnVX9mvJOmRnT-1" edge="1">
                    &#xa;                    
                    <mxGeometry relative="1" as="geometry"/>
                    &#xa;                
                </mxCell>
                &#xa;                
                <mxCell id="OARu9WSy1Fvda7pu0Fav-8" value="let AssetAllocation = {}&lt;br&gt;let cash = false&lt;br&gt;let credit = false" style="rounded=0;whiteSpace=wrap;html=1;" parent="M4IMHjmusEXuxh6YqbXx-1" vertex="1">
                    &#xa;                    
                    <mxGeometry x="560" y="400" width="200" height="70" as="geometry"/>
                    &#xa;                
                </mxCell>
                &#xa;                
                <mxCell id="pYuZtsfAnVX9mvJOmRnT-9" style="edgeStyle=orthogonalEdgeStyle;rounded=0;orthogonalLoop=1;jettySize=auto;html=1;entryX=0;entryY=0.5;entryDx=0;entryDy=0;" parent="M4IMHjmusEXuxh6YqbXx-1" source="S0295E1cDuHSQ-eF17qB-2" target="Fc-2gEE98_jmoO1Mdcfr-0" edge="1">
                    &#xa;                    
                    <mxGeometry relative="1" as="geometry">
                        &#xa;                        
                        <Array as="points">
                            &#xa;                            
                            <mxPoint x="380" y="605"/>
                            &#xa;                            
                            <mxPoint x="380" y="390"/>
                            &#xa;                            
                            <mxPoint x="790" y="390"/>
                            &#xa;                            
                            <mxPoint x="790" y="350"/>
                            &#xa;                        
                        </Array>
                        &#xa;                    
                    </mxGeometry>
                    &#xa;                
                </mxCell>
                &#xa;                
                <mxCell id="S0295E1cDuHSQ-eF17qB-2" value="Cash&lt;br&gt;&lt;br&gt;asset_value = 0&lt;br&gt;asset_data = [total_value, -total_value]" style="rounded=0;whiteSpace=wrap;html=1;" parent="M4IMHjmusEXuxh6YqbXx-1" vertex="1">
                    &#xa;                    
                    <mxGeometry x="410" y="520" width="230" height="170" as="geometry"/>
                    &#xa;                
                </mxCell>
                &#xa;                
                <mxCell id="Fc-2gEE98_jmoO1Mdcfr-3" style="edgeStyle=orthogonalEdgeStyle;rounded=0;orthogonalLoop=1;jettySize=auto;html=1;entryX=0.5;entryY=0;entryDx=0;entryDy=0;" parent="M4IMHjmusEXuxh6YqbXx-1" source="pYuZtsfAnVX9mvJOmRnT-0" target="Fc-2gEE98_jmoO1Mdcfr-0" edge="1">
                    &#xa;                    
                    <mxGeometry relative="1" as="geometry"/>
                    &#xa;                
                </mxCell>
                &#xa;                
                <mxCell id="Fc-2gEE98_jmoO1Mdcfr-4" style="edgeStyle=orthogonalEdgeStyle;rounded=0;orthogonalLoop=1;jettySize=auto;html=1;" parent="M4IMHjmusEXuxh6YqbXx-1" source="pYuZtsfAnVX9mvJOmRnT-0" target="Fc-2gEE98_jmoO1Mdcfr-1" edge="1">
                    &#xa;                    
                    <mxGeometry relative="1" as="geometry"/>
                    &#xa;                
                </mxCell>
                &#xa;                
                <mxCell id="pYuZtsfAnVX9mvJOmRnT-0" value="&lt;div style=&quot;color: rgb(212 , 212 , 212) ; background-color: rgb(30 , 30 , 30) ; font-family: &amp;#34;droid sans mono&amp;#34; , monospace , monospace , &amp;#34;droid sans fallback&amp;#34; ; font-size: 14px ; line-height: 19px&quot;&gt;&lt;span style=&quot;color: #9cdcfe&quot;&gt;AssetsUpdate&lt;/span&gt;&lt;/div&gt;&lt;div style=&quot;color: rgb(212 , 212 , 212) ; background-color: rgb(30 , 30 , 30) ; font-family: &amp;#34;droid sans mono&amp;#34; , monospace , monospace , &amp;#34;droid sans fallback&amp;#34; ; font-size: 14px ; line-height: 19px&quot;&gt;&lt;div style=&quot;font-family: &amp;#34;droid sans mono&amp;#34; , monospace , monospace , &amp;#34;droid sans fallback&amp;#34; ; line-height: 19px&quot;&gt;&lt;span style=&quot;color: #ce9178&quot;&gt;apps/crm/{businessID}/stats/total/assets&lt;/span&gt;&lt;/div&gt;&lt;/div&gt;" style="shape=process;whiteSpace=wrap;html=1;backgroundOutline=1;" parent="M4IMHjmusEXuxh6YqbXx-1" vertex="1">
                    &#xa;                    
                    <mxGeometry x="790" y="210" width="490" height="60" as="geometry"/>
                    &#xa;                
                </mxCell>
                &#xa;                
                <mxCell id="Fc-2gEE98_jmoO1Mdcfr-24" style="edgeStyle=orthogonalEdgeStyle;rounded=0;orthogonalLoop=1;jettySize=auto;html=1;entryX=0;entryY=0.5;entryDx=0;entryDy=0;" parent="M4IMHjmusEXuxh6YqbXx-1" source="pYuZtsfAnVX9mvJOmRnT-1" target="Fc-2gEE98_jmoO1Mdcfr-22" edge="1">
                    &#xa;                    
                    <mxGeometry relative="1" as="geometry">
                        &#xa;                        
                        <Array as="points">
                            &#xa;                            
                            <mxPoint x="1170" y="590"/>
                            &#xa;                            
                            <mxPoint x="1170" y="350"/>
                            &#xa;                        
                        </Array>
                        &#xa;                    
                    </mxGeometry>
                    &#xa;                
                </mxCell>
                &#xa;                
                <mxCell id="pYuZtsfAnVX9mvJOmRnT-1" value="Credit&lt;br&gt;asset_value = total_value - deposit&lt;br&gt;asset_data = [current_asset_value]" style="rounded=0;whiteSpace=wrap;html=1;" parent="M4IMHjmusEXuxh6YqbXx-1" vertex="1">
                    &#xa;                    
                    <mxGeometry x="660" y="520" width="260" height="170" as="geometry"/>
                    &#xa;                
                </mxCell>
                &#xa;                
                <mxCell id="pYuZtsfAnVX9mvJOmRnT-8" style="edgeStyle=orthogonalEdgeStyle;rounded=0;orthogonalLoop=1;jettySize=auto;html=1;" parent="M4IMHjmusEXuxh6YqbXx-1" source="pYuZtsfAnVX9mvJOmRnT-3" target="pYuZtsfAnVX9mvJOmRnT-7" edge="1">
                    &#xa;                    
                    <mxGeometry relative="1" as="geometry"/>
                    &#xa;                
                </mxCell>
                &#xa;                
                <mxCell id="pYuZtsfAnVX9mvJOmRnT-3" value="&lt;div style=&quot;color: rgb(212 , 212 , 212) ; background-color: rgb(30 , 30 , 30) ; font-family: &amp;#34;droid sans mono&amp;#34; , monospace , monospace , &amp;#34;droid sans fallback&amp;#34; ; font-size: 14px ; line-height: 19px&quot;&gt;&lt;span style=&quot;color: #9cdcfe&quot;&gt;LiabilitiesUpdate&lt;/span&gt;&lt;/div&gt;&lt;div style=&quot;color: rgb(212 , 212 , 212) ; background-color: rgb(30 , 30 , 30) ; font-family: &amp;#34;droid sans mono&amp;#34; , monospace , monospace , &amp;#34;droid sans fallback&amp;#34; ; font-size: 14px ; line-height: 19px&quot;&gt;&lt;div style=&quot;font-family: &amp;#34;droid sans mono&amp;#34; , monospace , monospace , &amp;#34;droid sans fallback&amp;#34; ; line-height: 19px&quot;&gt;&lt;span style=&quot;color: #ce9178&quot;&gt;apps/crm/{businessID}/liabilities/liabilities/{assetID}&lt;/span&gt;&lt;/div&gt;&lt;/div&gt;" style="shape=process;whiteSpace=wrap;html=1;backgroundOutline=1;" parent="M4IMHjmusEXuxh6YqbXx-1" vertex="1">
                    &#xa;                    
                    <mxGeometry x="1590" y="80" width="590" height="60" as="geometry"/>
                    &#xa;                
                </mxCell>
                &#xa;                
                <mxCell id="pYuZtsfAnVX9mvJOmRnT-6" style="edgeStyle=orthogonalEdgeStyle;rounded=0;orthogonalLoop=1;jettySize=auto;html=1;entryX=0;entryY=1;entryDx=0;entryDy=0;" parent="M4IMHjmusEXuxh6YqbXx-1" source="pYuZtsfAnVX9mvJOmRnT-5" target="pYuZtsfAnVX9mvJOmRnT-3" edge="1">
                    &#xa;                    
                    <mxGeometry relative="1" as="geometry"/>
                    &#xa;                
                </mxCell>
                &#xa;                
                <mxCell id="pYuZtsfAnVX9mvJOmRnT-5" value="liability_type: 'Fixed'&lt;br&gt;total_liability: loan amount&lt;br&gt;loan_term: loan_term&lt;br&gt;interest: interest&lt;br&gt;interest_type: interest_type&lt;br&gt;linked_asset: assetID&lt;br&gt;fixed_liability: 'Long Term Loans'&lt;br&gt;created_date: created_date&lt;br&gt;created_month: created_month" style="rounded=0;whiteSpace=wrap;html=1;" parent="M4IMHjmusEXuxh6YqbXx-1" vertex="1">
                    &#xa;                    
                    <mxGeometry x="690" y="660" width="190" height="150" as="geometry"/>
                    &#xa;                
                </mxCell>
                &#xa;                
                <mxCell id="Fc-2gEE98_jmoO1Mdcfr-49" style="edgeStyle=orthogonalEdgeStyle;rounded=0;orthogonalLoop=1;jettySize=auto;html=1;entryX=0.5;entryY=0;entryDx=0;entryDy=0;" parent="M4IMHjmusEXuxh6YqbXx-1" source="pYuZtsfAnVX9mvJOmRnT-7" target="Fc-2gEE98_jmoO1Mdcfr-47" edge="1">
                    &#xa;                    
                    <mxGeometry relative="1" as="geometry"/>
                    &#xa;                
                </mxCell>
                &#xa;                
                <mxCell id="Fc-2gEE98_jmoO1Mdcfr-50" style="edgeStyle=orthogonalEdgeStyle;rounded=0;orthogonalLoop=1;jettySize=auto;html=1;" parent="M4IMHjmusEXuxh6YqbXx-1" source="pYuZtsfAnVX9mvJOmRnT-7" target="Fc-2gEE98_jmoO1Mdcfr-48" edge="1">
                    &#xa;                    
                    <mxGeometry relative="1" as="geometry"/>
                    &#xa;                
                </mxCell>
                &#xa;                
                <mxCell id="pYuZtsfAnVX9mvJOmRnT-7" value="&lt;div style=&quot;color: rgb(212 , 212 , 212) ; background-color: rgb(30 , 30 , 30) ; font-family: &amp;#34;droid sans mono&amp;#34; , monospace , monospace , &amp;#34;droid sans fallback&amp;#34; ; font-size: 14px ; line-height: 19px&quot;&gt;&lt;span style=&quot;color: #9cdcfe&quot;&gt;LiabilitiesUpdate&lt;/span&gt;&lt;/div&gt;&lt;div style=&quot;color: rgb(212 , 212 , 212) ; background-color: rgb(30 , 30 , 30) ; font-family: &amp;#34;droid sans mono&amp;#34; , monospace , monospace , &amp;#34;droid sans fallback&amp;#34; ; font-size: 14px ; line-height: 19px&quot;&gt;&lt;div style=&quot;font-family: &amp;#34;droid sans mono&amp;#34; , monospace , monospace , &amp;#34;droid sans fallback&amp;#34; ; line-height: 19px&quot;&gt;&lt;span style=&quot;color: #ce9178&quot;&gt;apps/crm/{businessID}/stats/total/book&lt;/span&gt;&lt;/div&gt;&lt;/div&gt;" style="shape=process;whiteSpace=wrap;html=1;backgroundOutline=1;" parent="M4IMHjmusEXuxh6YqbXx-1" vertex="1">
                    &#xa;                    
                    <mxGeometry x="1640" y="210" width="490" height="60" as="geometry"/>
                    &#xa;                
                </mxCell>
                &#xa;                
                <mxCell id="Fc-2gEE98_jmoO1Mdcfr-2" style="edgeStyle=orthogonalEdgeStyle;rounded=0;orthogonalLoop=1;jettySize=auto;html=1;entryX=0;entryY=0.5;entryDx=0;entryDy=0;" parent="M4IMHjmusEXuxh6YqbXx-1" source="Fc-2gEE98_jmoO1Mdcfr-0" target="Fc-2gEE98_jmoO1Mdcfr-1" edge="1">
                    &#xa;                    
                    <mxGeometry relative="1" as="geometry"/>
                    &#xa;                
                </mxCell>
                &#xa;                
                <mxCell id="Fc-2gEE98_jmoO1Mdcfr-9" style="edgeStyle=orthogonalEdgeStyle;rounded=0;orthogonalLoop=1;jettySize=auto;html=1;" parent="M4IMHjmusEXuxh6YqbXx-1" source="Fc-2gEE98_jmoO1Mdcfr-0" edge="1">
                    &#xa;                    
                    <mxGeometry relative="1" as="geometry">
                        &#xa;                        
                        <mxPoint x="870" y="410" as="targetPoint"/>
                        &#xa;                    
                    </mxGeometry>
                    &#xa;                
                </mxCell>
                &#xa;                
                <mxCell id="Fc-2gEE98_jmoO1Mdcfr-0" value="Fixed" style="rounded=0;whiteSpace=wrap;html=1;" parent="M4IMHjmusEXuxh6YqbXx-1" vertex="1">
                    &#xa;                    
                    <mxGeometry x="830" y="320" width="80" height="60" as="geometry"/>
                    &#xa;                
                </mxCell>
                &#xa;                
                <mxCell id="Fc-2gEE98_jmoO1Mdcfr-8" style="edgeStyle=orthogonalEdgeStyle;rounded=0;orthogonalLoop=1;jettySize=auto;html=1;entryX=0.385;entryY=0.017;entryDx=0;entryDy=0;entryPerimeter=0;" parent="M4IMHjmusEXuxh6YqbXx-1" source="Fc-2gEE98_jmoO1Mdcfr-1" target="Fc-2gEE98_jmoO1Mdcfr-6" edge="1">
                    &#xa;                    
                    <mxGeometry relative="1" as="geometry">
                        &#xa;                        
                        <Array as="points">
                            &#xa;                            
                            <mxPoint x="1000" y="401"/>
                            &#xa;                            
                            <mxPoint x="1010" y="401"/>
                            &#xa;                        
                        </Array>
                        &#xa;                    
                    </mxGeometry>
                    &#xa;                
                </mxCell>
                &#xa;                
                <mxCell id="Fc-2gEE98_jmoO1Mdcfr-1" value="Current" style="rounded=0;whiteSpace=wrap;html=1;" parent="M4IMHjmusEXuxh6YqbXx-1" vertex="1">
                    &#xa;                    
                    <mxGeometry x="960" y="320" width="80" height="60" as="geometry"/>
                    &#xa;                
                </mxCell>
                &#xa;                
                <mxCell id="Fc-2gEE98_jmoO1Mdcfr-10" style="edgeStyle=orthogonalEdgeStyle;rounded=0;orthogonalLoop=1;jettySize=auto;html=1;entryX=0;entryY=0.5;entryDx=0;entryDy=0;" parent="M4IMHjmusEXuxh6YqbXx-1" source="Fc-2gEE98_jmoO1Mdcfr-5" target="Fc-2gEE98_jmoO1Mdcfr-7" edge="1">
                    &#xa;                    
                    <mxGeometry relative="1" as="geometry">
                        &#xa;                        
                        <Array as="points">
                            &#xa;                            
                            <mxPoint x="880" y="490"/>
                            &#xa;                            
                            <mxPoint x="950" y="490"/>
                            &#xa;                            
                            <mxPoint x="950" y="530"/>
                            &#xa;                        
                        </Array>
                        &#xa;                    
                    </mxGeometry>
                    &#xa;                
                </mxCell>
                &#xa;                
                <mxCell id="Fc-2gEE98_jmoO1Mdcfr-5" value="fixed_asset_value = total_value&lt;br&gt;fixed_asset_data = [total_value]" style="rounded=0;whiteSpace=wrap;html=1;" parent="M4IMHjmusEXuxh6YqbXx-1" vertex="1">
                    &#xa;                    
                    <mxGeometry x="780" y="410" width="160" height="60" as="geometry"/>
                    &#xa;                
                </mxCell>
                &#xa;                
                <mxCell id="Fc-2gEE98_jmoO1Mdcfr-11" style="edgeStyle=orthogonalEdgeStyle;rounded=0;orthogonalLoop=1;jettySize=auto;html=1;entryX=0.5;entryY=0;entryDx=0;entryDy=0;" parent="M4IMHjmusEXuxh6YqbXx-1" source="Fc-2gEE98_jmoO1Mdcfr-6" target="Fc-2gEE98_jmoO1Mdcfr-7" edge="1">
                    &#xa;                    
                    <mxGeometry relative="1" as="geometry"/>
                    &#xa;                
                </mxCell>
                &#xa;                
                <mxCell id="Fc-2gEE98_jmoO1Mdcfr-6" value="current_asset_value = total_value&lt;br&gt;current_asset_data = [total_value]" style="rounded=0;whiteSpace=wrap;html=1;" parent="M4IMHjmusEXuxh6YqbXx-1" vertex="1">
                    &#xa;                    
                    <mxGeometry x="960" y="410" width="160" height="60" as="geometry"/>
                    &#xa;                
                </mxCell>
                &#xa;                
                <mxCell id="Fc-2gEE98_jmoO1Mdcfr-14" style="edgeStyle=orthogonalEdgeStyle;rounded=0;orthogonalLoop=1;jettySize=auto;html=1;entryX=0.5;entryY=0;entryDx=0;entryDy=0;" parent="M4IMHjmusEXuxh6YqbXx-1" source="Fc-2gEE98_jmoO1Mdcfr-7" target="Fc-2gEE98_jmoO1Mdcfr-12" edge="1">
                    &#xa;                    
                    <mxGeometry relative="1" as="geometry"/>
                    &#xa;                
                </mxCell>
                &#xa;                
                <mxCell id="Fc-2gEE98_jmoO1Mdcfr-15" style="edgeStyle=orthogonalEdgeStyle;rounded=0;orthogonalLoop=1;jettySize=auto;html=1;entryX=0.5;entryY=0;entryDx=0;entryDy=0;" parent="M4IMHjmusEXuxh6YqbXx-1" source="Fc-2gEE98_jmoO1Mdcfr-7" target="Fc-2gEE98_jmoO1Mdcfr-13" edge="1">
                    &#xa;                    
                    <mxGeometry relative="1" as="geometry"/>
                    &#xa;                
                </mxCell>
                &#xa;                
                <mxCell id="Fc-2gEE98_jmoO1Mdcfr-7" value="current_asset_value = -total_value&lt;br&gt;current_asset_data = [-total_value]" style="rounded=0;whiteSpace=wrap;html=1;" parent="M4IMHjmusEXuxh6YqbXx-1" vertex="1">
                    &#xa;                    
                    <mxGeometry x="980" y="500" width="170" height="60" as="geometry"/>
                    &#xa;                
                </mxCell>
                &#xa;                
                <mxCell id="Fc-2gEE98_jmoO1Mdcfr-12" value="asset type = total_value" style="rounded=0;whiteSpace=wrap;html=1;fillColor=#008a00;strokeColor=#005700;fontColor=#ffffff;" parent="M4IMHjmusEXuxh6YqbXx-1" vertex="1">
                    &#xa;                    
                    <mxGeometry x="940" y="600" width="120" height="60" as="geometry"/>
                    &#xa;                
                </mxCell>
                &#xa;                
                <mxCell id="Fc-2gEE98_jmoO1Mdcfr-13" value="cash = - total_value" style="rounded=0;whiteSpace=wrap;html=1;fillColor=#a20025;strokeColor=#6F0000;fontColor=#ffffff;" parent="M4IMHjmusEXuxh6YqbXx-1" vertex="1">
                    &#xa;                    
                    <mxGeometry x="1090" y="600" width="120" height="60" as="geometry"/>
                    &#xa;                
                </mxCell>
                &#xa;                
                <mxCell id="Fc-2gEE98_jmoO1Mdcfr-16" value="1" style="ellipse;whiteSpace=wrap;html=1;aspect=fixed;" parent="M4IMHjmusEXuxh6YqbXx-1" vertex="1">
                    &#xa;                    
                    <mxGeometry x="620" y="520" width="20" height="20" as="geometry"/>
                    &#xa;                
                </mxCell>
                &#xa;                
                <mxCell id="Fc-2gEE98_jmoO1Mdcfr-17" value="1" style="ellipse;whiteSpace=wrap;html=1;aspect=fixed;" parent="M4IMHjmusEXuxh6YqbXx-1" vertex="1">
                    &#xa;                    
                    <mxGeometry x="1040" y="600" width="20" height="20" as="geometry"/>
                    &#xa;                
                </mxCell>
                &#xa;                
                <mxCell id="Fc-2gEE98_jmoO1Mdcfr-18" value="1" style="ellipse;whiteSpace=wrap;html=1;aspect=fixed;" parent="M4IMHjmusEXuxh6YqbXx-1" vertex="1">
                    &#xa;                    
                    <mxGeometry x="1190" y="600" width="20" height="20" as="geometry"/>
                    &#xa;                
                </mxCell>
                &#xa;                
                <mxCell id="Fc-2gEE98_jmoO1Mdcfr-19" value="1" style="ellipse;whiteSpace=wrap;html=1;aspect=fixed;" parent="M4IMHjmusEXuxh6YqbXx-1" vertex="1">
                    &#xa;                    
                    <mxGeometry x="1100" y="410" width="20" height="20" as="geometry"/>
                    &#xa;                
                </mxCell>
                &#xa;                
                <mxCell id="Fc-2gEE98_jmoO1Mdcfr-20" value="1" style="ellipse;whiteSpace=wrap;html=1;aspect=fixed;" parent="M4IMHjmusEXuxh6YqbXx-1" vertex="1">
                    &#xa;                    
                    <mxGeometry x="920" y="410" width="20" height="20" as="geometry"/>
                    &#xa;                
                </mxCell>
                &#xa;                
                <mxCell id="Fc-2gEE98_jmoO1Mdcfr-21" value="1" style="ellipse;whiteSpace=wrap;html=1;aspect=fixed;" parent="M4IMHjmusEXuxh6YqbXx-1" vertex="1">
                    &#xa;                    
                    <mxGeometry x="1130" y="500" width="20" height="20" as="geometry"/>
                    &#xa;                
                </mxCell>
                &#xa;                
                <mxCell id="Fc-2gEE98_jmoO1Mdcfr-35" style="edgeStyle=orthogonalEdgeStyle;rounded=0;orthogonalLoop=1;jettySize=auto;html=1;entryX=0.606;entryY=0.017;entryDx=0;entryDy=0;entryPerimeter=0;" parent="M4IMHjmusEXuxh6YqbXx-1" source="Fc-2gEE98_jmoO1Mdcfr-22" target="Fc-2gEE98_jmoO1Mdcfr-27" edge="1">
                    &#xa;                    
                    <mxGeometry relative="1" as="geometry"/>
                    &#xa;                
                </mxCell>
                &#xa;                
                <mxCell id="Fc-2gEE98_jmoO1Mdcfr-22" value="Fixed" style="rounded=0;whiteSpace=wrap;html=1;" parent="M4IMHjmusEXuxh6YqbXx-1" vertex="1">
                    &#xa;                    
                    <mxGeometry x="1240" y="320" width="80" height="60" as="geometry"/>
                    &#xa;                
                </mxCell>
                &#xa;                
                <mxCell id="Fc-2gEE98_jmoO1Mdcfr-25" style="edgeStyle=orthogonalEdgeStyle;rounded=0;orthogonalLoop=1;jettySize=auto;html=1;entryX=1;entryY=0.5;entryDx=0;entryDy=0;" parent="M4IMHjmusEXuxh6YqbXx-1" source="Fc-2gEE98_jmoO1Mdcfr-23" target="Fc-2gEE98_jmoO1Mdcfr-22" edge="1">
                    &#xa;                    
                    <mxGeometry relative="1" as="geometry"/>
                    &#xa;                
                </mxCell>
                &#xa;                
                <mxCell id="Fc-2gEE98_jmoO1Mdcfr-36" style="edgeStyle=orthogonalEdgeStyle;rounded=0;orthogonalLoop=1;jettySize=auto;html=1;entryX=0.369;entryY=-0.033;entryDx=0;entryDy=0;entryPerimeter=0;" parent="M4IMHjmusEXuxh6YqbXx-1" source="Fc-2gEE98_jmoO1Mdcfr-23" target="Fc-2gEE98_jmoO1Mdcfr-28" edge="1">
                    &#xa;                    
                    <mxGeometry relative="1" as="geometry"/>
                    &#xa;                
                </mxCell>
                &#xa;                
                <mxCell id="Fc-2gEE98_jmoO1Mdcfr-23" value="Current" style="rounded=0;whiteSpace=wrap;html=1;" parent="M4IMHjmusEXuxh6YqbXx-1" vertex="1">
                    &#xa;                    
                    <mxGeometry x="1370" y="320" width="80" height="60" as="geometry"/>
                    &#xa;                
                </mxCell>
                &#xa;                
                <mxCell id="Fc-2gEE98_jmoO1Mdcfr-26" value="2" style="ellipse;whiteSpace=wrap;html=1;aspect=fixed;" parent="M4IMHjmusEXuxh6YqbXx-1" vertex="1">
                    &#xa;                    
                    <mxGeometry x="900" y="520" width="20" height="20" as="geometry"/>
                    &#xa;                
                </mxCell>
                &#xa;                
                <mxCell id="Fc-2gEE98_jmoO1Mdcfr-37" style="edgeStyle=orthogonalEdgeStyle;rounded=0;orthogonalLoop=1;jettySize=auto;html=1;" parent="M4IMHjmusEXuxh6YqbXx-1" source="Fc-2gEE98_jmoO1Mdcfr-27" target="Fc-2gEE98_jmoO1Mdcfr-29" edge="1">
                    &#xa;                    
                    <mxGeometry relative="1" as="geometry"/>
                    &#xa;                
                </mxCell>
                &#xa;                
                <mxCell id="Fc-2gEE98_jmoO1Mdcfr-27" value="fixed_asset_value = total_value&lt;br&gt;fixed_asset_data = [total_value]" style="rounded=0;whiteSpace=wrap;html=1;" parent="M4IMHjmusEXuxh6YqbXx-1" vertex="1">
                    &#xa;                    
                    <mxGeometry x="1180" y="410" width="160" height="60" as="geometry"/>
                    &#xa;                
                </mxCell>
                &#xa;                
                <mxCell id="Fc-2gEE98_jmoO1Mdcfr-38" style="edgeStyle=orthogonalEdgeStyle;rounded=0;orthogonalLoop=1;jettySize=auto;html=1;entryX=0.5;entryY=0;entryDx=0;entryDy=0;" parent="M4IMHjmusEXuxh6YqbXx-1" source="Fc-2gEE98_jmoO1Mdcfr-28" target="Fc-2gEE98_jmoO1Mdcfr-29" edge="1">
                    &#xa;                    
                    <mxGeometry relative="1" as="geometry"/>
                    &#xa;                
                </mxCell>
                &#xa;                
                <mxCell id="Fc-2gEE98_jmoO1Mdcfr-28" value="current_asset_value = total_value&lt;br&gt;current_asset_data = [total_value]" style="rounded=0;whiteSpace=wrap;html=1;" parent="M4IMHjmusEXuxh6YqbXx-1" vertex="1">
                    &#xa;                    
                    <mxGeometry x="1360" y="410" width="160" height="60" as="geometry"/>
                    &#xa;                
                </mxCell>
                &#xa;                
                <mxCell id="Fc-2gEE98_jmoO1Mdcfr-41" style="edgeStyle=orthogonalEdgeStyle;rounded=0;orthogonalLoop=1;jettySize=auto;html=1;entryX=0.5;entryY=0;entryDx=0;entryDy=0;" parent="M4IMHjmusEXuxh6YqbXx-1" source="Fc-2gEE98_jmoO1Mdcfr-29" target="Fc-2gEE98_jmoO1Mdcfr-39" edge="1">
                    &#xa;                    
                    <mxGeometry relative="1" as="geometry"/>
                    &#xa;                
                </mxCell>
                &#xa;                
                <mxCell id="Fc-2gEE98_jmoO1Mdcfr-42" style="edgeStyle=orthogonalEdgeStyle;rounded=0;orthogonalLoop=1;jettySize=auto;html=1;entryX=0.5;entryY=0;entryDx=0;entryDy=0;" parent="M4IMHjmusEXuxh6YqbXx-1" source="Fc-2gEE98_jmoO1Mdcfr-29" target="Fc-2gEE98_jmoO1Mdcfr-40" edge="1">
                    &#xa;                    
                    <mxGeometry relative="1" as="geometry"/>
                    &#xa;                
                </mxCell>
                &#xa;                
                <mxCell id="Fc-2gEE98_jmoO1Mdcfr-29" value="current_asset_value = -deposit&lt;br&gt;current_asset_data = [-deposit]" style="rounded=0;whiteSpace=wrap;html=1;" parent="M4IMHjmusEXuxh6YqbXx-1" vertex="1">
                    &#xa;                    
                    <mxGeometry x="1330" y="510" width="200" height="60" as="geometry"/>
                    &#xa;                
                </mxCell>
                &#xa;                
                <mxCell id="Fc-2gEE98_jmoO1Mdcfr-30" value="2" style="ellipse;whiteSpace=wrap;html=1;aspect=fixed;" parent="M4IMHjmusEXuxh6YqbXx-1" vertex="1">
                    &#xa;                    
                    <mxGeometry x="1320" y="410" width="20" height="20" as="geometry"/>
                    &#xa;                
                </mxCell>
                &#xa;                
                <mxCell id="Fc-2gEE98_jmoO1Mdcfr-31" value="2" style="ellipse;whiteSpace=wrap;html=1;aspect=fixed;" parent="M4IMHjmusEXuxh6YqbXx-1" vertex="1">
                    &#xa;                    
                    <mxGeometry x="1500" y="410" width="20" height="20" as="geometry"/>
                    &#xa;                
                </mxCell>
                &#xa;                
                <mxCell id="Fc-2gEE98_jmoO1Mdcfr-32" value="2" style="ellipse;whiteSpace=wrap;html=1;aspect=fixed;" parent="M4IMHjmusEXuxh6YqbXx-1" vertex="1">
                    &#xa;                    
                    <mxGeometry x="1510" y="510" width="20" height="20" as="geometry"/>
                    &#xa;                
                </mxCell>
                &#xa;                
                <mxCell id="Fc-2gEE98_jmoO1Mdcfr-39" value="asset type = total_value" style="rounded=0;whiteSpace=wrap;html=1;fillColor=#008a00;strokeColor=#005700;fontColor=#ffffff;" parent="M4IMHjmusEXuxh6YqbXx-1" vertex="1">
                    &#xa;                    
                    <mxGeometry x="1295" y="600" width="120" height="60" as="geometry"/>
                    &#xa;                
                </mxCell>
                &#xa;                
                <mxCell id="Fc-2gEE98_jmoO1Mdcfr-40" value="cash = - deposit" style="rounded=0;whiteSpace=wrap;html=1;fillColor=#a20025;strokeColor=#6F0000;fontColor=#ffffff;" parent="M4IMHjmusEXuxh6YqbXx-1" vertex="1">
                    &#xa;                    
                    <mxGeometry x="1445" y="600" width="120" height="60" as="geometry"/>
                    &#xa;                
                </mxCell>
                &#xa;                
                <mxCell id="Fc-2gEE98_jmoO1Mdcfr-43" value="2" style="ellipse;whiteSpace=wrap;html=1;aspect=fixed;" parent="M4IMHjmusEXuxh6YqbXx-1" vertex="1">
                    &#xa;                    
                    <mxGeometry x="1545" y="600" width="20" height="20" as="geometry"/>
                    &#xa;                
                </mxCell>
                &#xa;                
                <mxCell id="Fc-2gEE98_jmoO1Mdcfr-44" value="2" style="ellipse;whiteSpace=wrap;html=1;aspect=fixed;" parent="M4IMHjmusEXuxh6YqbXx-1" vertex="1">
                    &#xa;                    
                    <mxGeometry x="1395" y="600" width="20" height="20" as="geometry"/>
                    &#xa;                
                </mxCell>
                &#xa;                
                <mxCell id="Fc-2gEE98_jmoO1Mdcfr-47" value="doc exist" style="rounded=0;whiteSpace=wrap;html=1;" parent="M4IMHjmusEXuxh6YqbXx-1" vertex="1">
                    &#xa;                    
                    <mxGeometry x="1710" y="330" width="120" height="60" as="geometry"/>
                    &#xa;                
                </mxCell>
                &#xa;                
                <mxCell id="Fc-2gEE98_jmoO1Mdcfr-53" style="edgeStyle=orthogonalEdgeStyle;rounded=0;orthogonalLoop=1;jettySize=auto;html=1;entryX=0.5;entryY=0;entryDx=0;entryDy=0;" parent="M4IMHjmusEXuxh6YqbXx-1" source="Fc-2gEE98_jmoO1Mdcfr-48" target="Fc-2gEE98_jmoO1Mdcfr-51" edge="1">
                    &#xa;                    
                    <mxGeometry relative="1" as="geometry"/>
                    &#xa;                
                </mxCell>
                &#xa;                
                <mxCell id="Fc-2gEE98_jmoO1Mdcfr-48" value="doc doesn't exist" style="rounded=0;whiteSpace=wrap;html=1;" parent="M4IMHjmusEXuxh6YqbXx-1" vertex="1">
                    &#xa;                    
                    <mxGeometry x="2080" y="330" width="120" height="60" as="geometry"/>
                    &#xa;                
                </mxCell>
                &#xa;                
                <mxCell id="Fc-2gEE98_jmoO1Mdcfr-54" style="edgeStyle=orthogonalEdgeStyle;rounded=0;orthogonalLoop=1;jettySize=auto;html=1;entryX=0.5;entryY=0;entryDx=0;entryDy=0;" parent="M4IMHjmusEXuxh6YqbXx-1" source="Fc-2gEE98_jmoO1Mdcfr-51" target="Fc-2gEE98_jmoO1Mdcfr-52" edge="1">
                    &#xa;                    
                    <mxGeometry relative="1" as="geometry"/>
                    &#xa;                
                </mxCell>
                &#xa;                
                <mxCell id="Fc-2gEE98_jmoO1Mdcfr-51" value="liability_value = 0&lt;br&gt;liability_data = [total_liability]" style="rounded=0;whiteSpace=wrap;html=1;" parent="M4IMHjmusEXuxh6YqbXx-1" vertex="1">
                    &#xa;                    
                    <mxGeometry x="1880" y="447.5" width="185" height="125" as="geometry"/>
                    &#xa;                
                </mxCell>
                &#xa;                
                <mxCell id="Fc-2gEE98_jmoO1Mdcfr-60" style="edgeStyle=orthogonalEdgeStyle;rounded=0;orthogonalLoop=1;jettySize=auto;html=1;entryX=0.5;entryY=0;entryDx=0;entryDy=0;" parent="M4IMHjmusEXuxh6YqbXx-1" source="Fc-2gEE98_jmoO1Mdcfr-52" target="Fc-2gEE98_jmoO1Mdcfr-56" edge="1">
                    &#xa;                    
                    <mxGeometry relative="1" as="geometry"/>
                    &#xa;                
                </mxCell>
                &#xa;                
                <mxCell id="Fc-2gEE98_jmoO1Mdcfr-61" style="edgeStyle=orthogonalEdgeStyle;rounded=0;orthogonalLoop=1;jettySize=auto;html=1;entryX=0.5;entryY=0;entryDx=0;entryDy=0;" parent="M4IMHjmusEXuxh6YqbXx-1" source="Fc-2gEE98_jmoO1Mdcfr-52" target="Fc-2gEE98_jmoO1Mdcfr-55" edge="1">
                    &#xa;                    
                    <mxGeometry relative="1" as="geometry"/>
                    &#xa;                
                </mxCell>
                &#xa;                
                <mxCell id="Fc-2gEE98_jmoO1Mdcfr-62" style="edgeStyle=orthogonalEdgeStyle;rounded=0;orthogonalLoop=1;jettySize=auto;html=1;" parent="M4IMHjmusEXuxh6YqbXx-1" source="Fc-2gEE98_jmoO1Mdcfr-52" target="Fc-2gEE98_jmoO1Mdcfr-57" edge="1">
                    &#xa;                    
                    <mxGeometry relative="1" as="geometry"/>
                    &#xa;                
                </mxCell>
                &#xa;                
                <mxCell id="Fc-2gEE98_jmoO1Mdcfr-52" value="&lt;div style=&quot;color: rgb(212 , 212 , 212) ; background-color: rgb(30 , 30 , 30) ; font-family: &amp;#34;droid sans mono&amp;#34; , monospace , monospace , &amp;#34;droid sans fallback&amp;#34; ; font-size: 14px ; line-height: 19px&quot;&gt;&lt;span style=&quot;color: #9cdcfe&quot;&gt;LiabilityUpdate&lt;/span&gt;&lt;/div&gt;&lt;div style=&quot;color: rgb(212 , 212 , 212) ; background-color: rgb(30 , 30 , 30) ; font-family: &amp;#34;droid sans mono&amp;#34; , monospace , monospace , &amp;#34;droid sans fallback&amp;#34; ; font-size: 14px ; line-height: 19px&quot;&gt;&lt;div style=&quot;font-family: &amp;#34;droid sans mono&amp;#34; , monospace , monospace , &amp;#34;droid sans fallback&amp;#34; ; line-height: 19px&quot;&gt;&lt;span style=&quot;color: #ce9178&quot;&gt;apps/crm/{businessID}/stats/total/liability&lt;/span&gt;&lt;/div&gt;&lt;/div&gt;" style="shape=process;whiteSpace=wrap;html=1;backgroundOutline=1;" parent="M4IMHjmusEXuxh6YqbXx-1" vertex="1">
                    &#xa;                    
                    <mxGeometry x="1727.5" y="610" width="490" height="60" as="geometry"/>
                    &#xa;                
                </mxCell>
                &#xa;                
                <mxCell id="Fc-2gEE98_jmoO1Mdcfr-64" style="edgeStyle=orthogonalEdgeStyle;rounded=0;orthogonalLoop=1;jettySize=auto;html=1;entryX=0.428;entryY=0;entryDx=0;entryDy=0;entryPerimeter=0;" parent="M4IMHjmusEXuxh6YqbXx-1" source="Fc-2gEE98_jmoO1Mdcfr-55" target="Fc-2gEE98_jmoO1Mdcfr-59" edge="1">
                    &#xa;                    
                    <mxGeometry relative="1" as="geometry"/>
                    &#xa;                
                </mxCell>
                &#xa;                
                <mxCell id="Fc-2gEE98_jmoO1Mdcfr-55" value="Fixed" style="rounded=0;whiteSpace=wrap;html=1;" parent="M4IMHjmusEXuxh6YqbXx-1" vertex="1">
                    &#xa;                    
                    <mxGeometry x="1802.5" y="700" width="80" height="60" as="geometry"/>
                    &#xa;                
                </mxCell>
                &#xa;                
                <mxCell id="Fc-2gEE98_jmoO1Mdcfr-56" value="Current" style="rounded=0;whiteSpace=wrap;html=1;" parent="M4IMHjmusEXuxh6YqbXx-1" vertex="1">
                    &#xa;                    
                    <mxGeometry x="1932.5" y="700" width="80" height="60" as="geometry"/>
                    &#xa;                
                </mxCell>
                &#xa;                
                <mxCell id="Fc-2gEE98_jmoO1Mdcfr-57" value="Contigent" style="rounded=0;whiteSpace=wrap;html=1;" parent="M4IMHjmusEXuxh6YqbXx-1" vertex="1">
                    &#xa;                    
                    <mxGeometry x="2062.5" y="700" width="80" height="60" as="geometry"/>
                    &#xa;                
                </mxCell>
                &#xa;                
                <mxCell id="Fc-2gEE98_jmoO1Mdcfr-58" value="2" style="ellipse;whiteSpace=wrap;html=1;aspect=fixed;" parent="M4IMHjmusEXuxh6YqbXx-1" vertex="1">
                    &#xa;                    
                    <mxGeometry x="860" y="660" width="20" height="20" as="geometry"/>
                    &#xa;                
                </mxCell>
                &#xa;                
                <mxCell id="Fc-2gEE98_jmoO1Mdcfr-66" value="" style="edgeStyle=orthogonalEdgeStyle;rounded=0;orthogonalLoop=1;jettySize=auto;html=1;" parent="M4IMHjmusEXuxh6YqbXx-1" source="Fc-2gEE98_jmoO1Mdcfr-59" target="Fc-2gEE98_jmoO1Mdcfr-65" edge="1">
                    &#xa;                    
                    <mxGeometry relative="1" as="geometry"/>
                    &#xa;                
                </mxCell>
                &#xa;                
                <mxCell id="Fc-2gEE98_jmoO1Mdcfr-59" value="fixed_liability_value = total_liability&lt;br&gt;fixed_liability_data = [total_liability]" style="rounded=0;whiteSpace=wrap;html=1;" parent="M4IMHjmusEXuxh6YqbXx-1" vertex="1">
                    &#xa;                    
                    <mxGeometry x="1772.5" y="790" width="160" height="60" as="geometry"/>
                    &#xa;                
                </mxCell>
                &#xa;                
                <mxCell id="Fc-2gEE98_jmoO1Mdcfr-65" value="liability_type = total liability" style="rounded=0;whiteSpace=wrap;html=1;fillColor=#a20025;strokeColor=#6F0000;fontColor=#ffffff;" parent="M4IMHjmusEXuxh6YqbXx-1" vertex="1">
                    &#xa;                    
                    <mxGeometry x="1772.5" y="870" width="160" height="60" as="geometry"/>
                    &#xa;                
                </mxCell>
                &#xa;                
                <mxCell id="Fc-2gEE98_jmoO1Mdcfr-63" value="2" style="ellipse;whiteSpace=wrap;html=1;aspect=fixed;" parent="M4IMHjmusEXuxh6YqbXx-1" vertex="1">
                    &#xa;                    
                    <mxGeometry x="1912.5" y="790" width="20" height="20" as="geometry"/>
                    &#xa;                
                </mxCell>
                &#xa;                
                <mxCell id="Fc-2gEE98_jmoO1Mdcfr-67" value="2" style="ellipse;whiteSpace=wrap;html=1;aspect=fixed;" parent="M4IMHjmusEXuxh6YqbXx-1" vertex="1">
                    &#xa;                    
                    <mxGeometry x="1912.5" y="870" width="20" height="20" as="geometry"/>
                    &#xa;                
                </mxCell>
                &#xa;            
            </root>
            &#xa;        
        </mxGraphModel>
        &#xa;    
    </diagram>
    <diagram id="kWH0ikPrZBJ0sPh8avsi" name="Questions">
        <mxGraphModel dx="1125" dy="806" grid="1" gridSize="10" guides="1" tooltips="1" connect="1" arrows="1" fold="1" page="1" pageScale="1" pageWidth="3300" pageHeight="4681" math="0" shadow="0">
            <root>
                <mxCell id="IPYmmoNChUyLdm5GVZw2-0"/>
                <mxCell id="IPYmmoNChUyLdm5GVZw2-1" parent="IPYmmoNChUyLdm5GVZw2-0"/>
                <mxCell id="waOp5gOY9GueCPtudxNK-5" style="edgeStyle=orthogonalEdgeStyle;rounded=0;orthogonalLoop=1;jettySize=auto;html=1;" parent="IPYmmoNChUyLdm5GVZw2-1" source="waOp5gOY9GueCPtudxNK-0" target="waOp5gOY9GueCPtudxNK-1" edge="1">
                    <mxGeometry relative="1" as="geometry"/>
                </mxCell>
                <mxCell id="waOp5gOY9GueCPtudxNK-6" style="edgeStyle=orthogonalEdgeStyle;rounded=0;orthogonalLoop=1;jettySize=auto;html=1;" parent="IPYmmoNChUyLdm5GVZw2-1" source="waOp5gOY9GueCPtudxNK-0" target="waOp5gOY9GueCPtudxNK-2" edge="1">
                    <mxGeometry relative="1" as="geometry"/>
                </mxCell>
                <mxCell id="waOp5gOY9GueCPtudxNK-0" value="Expense" style="whiteSpace=wrap;html=1;aspect=fixed;" parent="IPYmmoNChUyLdm5GVZw2-1" vertex="1">
                    <mxGeometry x="460" y="50" width="80" height="80" as="geometry"/>
                </mxCell>
                <mxCell id="XJrA5cl6L4-JZxvm1Wz_-20" style="edgeStyle=orthogonalEdgeStyle;rounded=0;orthogonalLoop=1;jettySize=auto;html=1;entryX=0.5;entryY=0;entryDx=0;entryDy=0;" parent="IPYmmoNChUyLdm5GVZw2-1" source="waOp5gOY9GueCPtudxNK-1" target="XJrA5cl6L4-JZxvm1Wz_-0" edge="1">
                    <mxGeometry relative="1" as="geometry">
                        <mxPoint x="70" y="270" as="targetPoint"/>
                    </mxGeometry>
                </mxCell>
                <mxCell id="XJrA5cl6L4-JZxvm1Wz_-21" style="edgeStyle=orthogonalEdgeStyle;rounded=0;orthogonalLoop=1;jettySize=auto;html=1;" parent="IPYmmoNChUyLdm5GVZw2-1" source="waOp5gOY9GueCPtudxNK-1" target="XJrA5cl6L4-JZxvm1Wz_-1" edge="1">
                    <mxGeometry relative="1" as="geometry"/>
                </mxCell>
                <mxCell id="XJrA5cl6L4-JZxvm1Wz_-22" style="edgeStyle=orthogonalEdgeStyle;rounded=0;orthogonalLoop=1;jettySize=auto;html=1;entryX=0.5;entryY=0;entryDx=0;entryDy=0;" parent="IPYmmoNChUyLdm5GVZw2-1" source="waOp5gOY9GueCPtudxNK-1" target="XJrA5cl6L4-JZxvm1Wz_-6" edge="1">
                    <mxGeometry relative="1" as="geometry"/>
                </mxCell>
                <mxCell id="XJrA5cl6L4-JZxvm1Wz_-23" style="edgeStyle=orthogonalEdgeStyle;rounded=0;orthogonalLoop=1;jettySize=auto;html=1;entryX=0.5;entryY=0;entryDx=0;entryDy=0;" parent="IPYmmoNChUyLdm5GVZw2-1" source="waOp5gOY9GueCPtudxNK-1" target="XJrA5cl6L4-JZxvm1Wz_-3" edge="1">
                    <mxGeometry relative="1" as="geometry">
                        <mxPoint x="300" y="270" as="targetPoint"/>
                    </mxGeometry>
                </mxCell>
                <mxCell id="XJrA5cl6L4-JZxvm1Wz_-26" style="edgeStyle=orthogonalEdgeStyle;rounded=0;orthogonalLoop=1;jettySize=auto;html=1;entryX=0.5;entryY=0;entryDx=0;entryDy=0;" parent="IPYmmoNChUyLdm5GVZw2-1" source="waOp5gOY9GueCPtudxNK-1" target="XJrA5cl6L4-JZxvm1Wz_-4" edge="1">
                    <mxGeometry relative="1" as="geometry"/>
                </mxCell>
                <mxCell id="XJrA5cl6L4-JZxvm1Wz_-27" style="edgeStyle=orthogonalEdgeStyle;rounded=0;orthogonalLoop=1;jettySize=auto;html=1;entryX=0.5;entryY=0;entryDx=0;entryDy=0;" parent="IPYmmoNChUyLdm5GVZw2-1" source="waOp5gOY9GueCPtudxNK-1" target="XJrA5cl6L4-JZxvm1Wz_-2" edge="1">
                    <mxGeometry relative="1" as="geometry"/>
                </mxCell>
                <mxCell id="XJrA5cl6L4-JZxvm1Wz_-28" style="edgeStyle=orthogonalEdgeStyle;rounded=0;orthogonalLoop=1;jettySize=auto;html=1;entryX=0.5;entryY=0;entryDx=0;entryDy=0;" parent="IPYmmoNChUyLdm5GVZw2-1" source="waOp5gOY9GueCPtudxNK-1" target="XJrA5cl6L4-JZxvm1Wz_-5" edge="1">
                    <mxGeometry relative="1" as="geometry">
                        <mxPoint x="510" y="270" as="targetPoint"/>
                    </mxGeometry>
                </mxCell>
                <mxCell id="waOp5gOY9GueCPtudxNK-1" value="Current" style="ellipse;whiteSpace=wrap;html=1;aspect=fixed;" parent="IPYmmoNChUyLdm5GVZw2-1" vertex="1">
                    <mxGeometry x="340" y="180" width="80" height="80" as="geometry"/>
                </mxCell>
                <mxCell id="XJrA5cl6L4-JZxvm1Wz_-54" style="edgeStyle=orthogonalEdgeStyle;rounded=0;orthogonalLoop=1;jettySize=auto;html=1;entryX=0.5;entryY=0;entryDx=0;entryDy=0;" parent="IPYmmoNChUyLdm5GVZw2-1" source="waOp5gOY9GueCPtudxNK-2" target="XJrA5cl6L4-JZxvm1Wz_-48" edge="1">
                    <mxGeometry relative="1" as="geometry"/>
                </mxCell>
                <mxCell id="XJrA5cl6L4-JZxvm1Wz_-55" style="edgeStyle=orthogonalEdgeStyle;rounded=0;orthogonalLoop=1;jettySize=auto;html=1;" parent="IPYmmoNChUyLdm5GVZw2-1" source="waOp5gOY9GueCPtudxNK-2" target="XJrA5cl6L4-JZxvm1Wz_-40" edge="1">
                    <mxGeometry relative="1" as="geometry"/>
                </mxCell>
                <mxCell id="uoXhtfPmWp4suCaWeP9a-19" style="edgeStyle=orthogonalEdgeStyle;rounded=0;orthogonalLoop=1;jettySize=auto;html=1;entryX=0.5;entryY=0;entryDx=0;entryDy=0;" parent="IPYmmoNChUyLdm5GVZw2-1" source="waOp5gOY9GueCPtudxNK-2" target="XJrA5cl6L4-JZxvm1Wz_-47" edge="1">
                    <mxGeometry relative="1" as="geometry"/>
                </mxCell>
                <mxCell id="uoXhtfPmWp4suCaWeP9a-20" style="edgeStyle=orthogonalEdgeStyle;rounded=0;orthogonalLoop=1;jettySize=auto;html=1;entryX=0.5;entryY=0;entryDx=0;entryDy=0;" parent="IPYmmoNChUyLdm5GVZw2-1" source="waOp5gOY9GueCPtudxNK-2" target="XJrA5cl6L4-JZxvm1Wz_-46" edge="1">
                    <mxGeometry relative="1" as="geometry"/>
                </mxCell>
                <mxCell id="uoXhtfPmWp4suCaWeP9a-21" style="edgeStyle=orthogonalEdgeStyle;rounded=0;orthogonalLoop=1;jettySize=auto;html=1;" parent="IPYmmoNChUyLdm5GVZw2-1" source="waOp5gOY9GueCPtudxNK-2" target="XJrA5cl6L4-JZxvm1Wz_-45" edge="1">
                    <mxGeometry relative="1" as="geometry"/>
                </mxCell>
                <mxCell id="uoXhtfPmWp4suCaWeP9a-22" style="edgeStyle=orthogonalEdgeStyle;rounded=0;orthogonalLoop=1;jettySize=auto;html=1;entryX=0.5;entryY=0;entryDx=0;entryDy=0;" parent="IPYmmoNChUyLdm5GVZw2-1" source="waOp5gOY9GueCPtudxNK-2" target="XJrA5cl6L4-JZxvm1Wz_-43" edge="1">
                    <mxGeometry relative="1" as="geometry"/>
                </mxCell>
                <mxCell id="uoXhtfPmWp4suCaWeP9a-23" style="edgeStyle=orthogonalEdgeStyle;rounded=0;orthogonalLoop=1;jettySize=auto;html=1;" parent="IPYmmoNChUyLdm5GVZw2-1" source="waOp5gOY9GueCPtudxNK-2" target="XJrA5cl6L4-JZxvm1Wz_-44" edge="1">
                    <mxGeometry relative="1" as="geometry"/>
                </mxCell>
                <mxCell id="uoXhtfPmWp4suCaWeP9a-24" style="edgeStyle=orthogonalEdgeStyle;rounded=0;orthogonalLoop=1;jettySize=auto;html=1;" parent="IPYmmoNChUyLdm5GVZw2-1" source="waOp5gOY9GueCPtudxNK-2" target="XJrA5cl6L4-JZxvm1Wz_-41" edge="1">
                    <mxGeometry relative="1" as="geometry"/>
                </mxCell>
                <mxCell id="uoXhtfPmWp4suCaWeP9a-25" style="edgeStyle=orthogonalEdgeStyle;rounded=0;orthogonalLoop=1;jettySize=auto;html=1;" parent="IPYmmoNChUyLdm5GVZw2-1" source="waOp5gOY9GueCPtudxNK-2" target="XJrA5cl6L4-JZxvm1Wz_-42" edge="1">
                    <mxGeometry relative="1" as="geometry"/>
                </mxCell>
                <mxCell id="uoXhtfPmWp4suCaWeP9a-26" style="edgeStyle=orthogonalEdgeStyle;rounded=0;orthogonalLoop=1;jettySize=auto;html=1;entryX=0.5;entryY=0;entryDx=0;entryDy=0;" parent="IPYmmoNChUyLdm5GVZw2-1" source="waOp5gOY9GueCPtudxNK-2" target="XJrA5cl6L4-JZxvm1Wz_-52" edge="1">
                    <mxGeometry relative="1" as="geometry"/>
                </mxCell>
                <mxCell id="waOp5gOY9GueCPtudxNK-2" value="Fixed" style="ellipse;whiteSpace=wrap;html=1;aspect=fixed;" parent="IPYmmoNChUyLdm5GVZw2-1" vertex="1">
                    <mxGeometry x="610" y="180" width="80" height="80" as="geometry"/>
                </mxCell>
                <mxCell id="XJrA5cl6L4-JZxvm1Wz_-73" value="" style="edgeStyle=orthogonalEdgeStyle;rounded=0;orthogonalLoop=1;jettySize=auto;html=1;" parent="IPYmmoNChUyLdm5GVZw2-1" source="uoXhtfPmWp4suCaWeP9a-17" target="waOp5gOY9GueCPtudxNK-4" edge="1">
                    <mxGeometry relative="1" as="geometry"/>
                </mxCell>
                <mxCell id="waOp5gOY9GueCPtudxNK-3" value="Value" style="whiteSpace=wrap;html=1;aspect=fixed;" parent="IPYmmoNChUyLdm5GVZw2-1" vertex="1">
                    <mxGeometry x="470" y="610" width="80" height="80" as="geometry"/>
                </mxCell>
                <mxCell id="uoXhtfPmWp4suCaWeP9a-2" style="edgeStyle=orthogonalEdgeStyle;rounded=0;orthogonalLoop=1;jettySize=auto;html=1;entryX=0.5;entryY=0;entryDx=0;entryDy=0;" parent="IPYmmoNChUyLdm5GVZw2-1" target="uoXhtfPmWp4suCaWeP9a-0" edge="1">
                    <mxGeometry relative="1" as="geometry">
                        <mxPoint x="460" y="890" as="sourcePoint"/>
                    </mxGeometry>
                </mxCell>
                <mxCell id="uoXhtfPmWp4suCaWeP9a-3" style="edgeStyle=orthogonalEdgeStyle;rounded=0;orthogonalLoop=1;jettySize=auto;html=1;entryX=0.5;entryY=0;entryDx=0;entryDy=0;" parent="IPYmmoNChUyLdm5GVZw2-1" target="uoXhtfPmWp4suCaWeP9a-1" edge="1">
                    <mxGeometry relative="1" as="geometry">
                        <mxPoint x="540" y="890" as="sourcePoint"/>
                    </mxGeometry>
                </mxCell>
                <mxCell id="waOp5gOY9GueCPtudxNK-4" value="Transaction Type" style="ellipse;whiteSpace=wrap;html=1;aspect=fixed;" parent="IPYmmoNChUyLdm5GVZw2-1" vertex="1">
                    <mxGeometry x="460" y="850" width="80" height="80" as="geometry"/>
                </mxCell>
                <mxCell id="XJrA5cl6L4-JZxvm1Wz_-19" style="edgeStyle=orthogonalEdgeStyle;rounded=0;orthogonalLoop=1;jettySize=auto;html=1;entryX=-0.05;entryY=0.888;entryDx=0;entryDy=0;entryPerimeter=0;" parent="IPYmmoNChUyLdm5GVZw2-1" source="XJrA5cl6L4-JZxvm1Wz_-0" target="waOp5gOY9GueCPtudxNK-3" edge="1">
                    <mxGeometry relative="1" as="geometry">
                        <mxPoint x="60" y="670" as="targetPoint"/>
                        <Array as="points">
                            <mxPoint x="60" y="681"/>
                        </Array>
                    </mxGeometry>
                </mxCell>
                <mxCell id="XJrA5cl6L4-JZxvm1Wz_-0" value="Cash" style="rounded=0;whiteSpace=wrap;html=1;" parent="IPYmmoNChUyLdm5GVZw2-1" vertex="1">
                    <mxGeometry x="30" y="280" width="60" height="40" as="geometry"/>
                </mxCell>
                <mxCell id="XJrA5cl6L4-JZxvm1Wz_-14" value="" style="edgeStyle=orthogonalEdgeStyle;rounded=0;orthogonalLoop=1;jettySize=auto;html=1;" parent="IPYmmoNChUyLdm5GVZw2-1" source="XJrA5cl6L4-JZxvm1Wz_-1" edge="1">
                    <mxGeometry relative="1" as="geometry">
                        <mxPoint x="135" y="600" as="targetPoint"/>
                    </mxGeometry>
                </mxCell>
                <mxCell id="XJrA5cl6L4-JZxvm1Wz_-1" value="Cash Equivalent" style="rounded=0;whiteSpace=wrap;html=1;fillColor=#60a917;strokeColor=#2D7600;fontColor=#ffffff;" parent="IPYmmoNChUyLdm5GVZw2-1" vertex="1">
                    <mxGeometry x="100" y="280" width="70" height="40" as="geometry"/>
                </mxCell>
                <mxCell id="XJrA5cl6L4-JZxvm1Wz_-18" value="" style="edgeStyle=orthogonalEdgeStyle;rounded=0;orthogonalLoop=1;jettySize=auto;html=1;" parent="IPYmmoNChUyLdm5GVZw2-1" source="XJrA5cl6L4-JZxvm1Wz_-2" target="XJrA5cl6L4-JZxvm1Wz_-16" edge="1">
                    <mxGeometry relative="1" as="geometry"/>
                </mxCell>
                <mxCell id="XJrA5cl6L4-JZxvm1Wz_-2" value="Stock or Inventory" style="rounded=0;whiteSpace=wrap;html=1;fillColor=#1ba1e2;strokeColor=#006EAF;fontColor=#ffffff;" parent="IPYmmoNChUyLdm5GVZw2-1" vertex="1">
                    <mxGeometry x="425" y="280" width="70" height="40" as="geometry"/>
                </mxCell>
                <mxCell id="XJrA5cl6L4-JZxvm1Wz_-3" value="Accounts Receivalbe" style="rounded=0;whiteSpace=wrap;html=1;" parent="IPYmmoNChUyLdm5GVZw2-1" vertex="1">
                    <mxGeometry x="260" y="280" width="70" height="40" as="geometry"/>
                </mxCell>
                <mxCell id="XJrA5cl6L4-JZxvm1Wz_-31" style="edgeStyle=orthogonalEdgeStyle;rounded=0;orthogonalLoop=1;jettySize=auto;html=1;" parent="IPYmmoNChUyLdm5GVZw2-1" source="XJrA5cl6L4-JZxvm1Wz_-4" edge="1">
                    <mxGeometry relative="1" as="geometry">
                        <mxPoint x="380" y="680" as="targetPoint"/>
                        <Array as="points">
                            <mxPoint x="380" y="658"/>
                        </Array>
                    </mxGeometry>
                </mxCell>
                <mxCell id="XJrA5cl6L4-JZxvm1Wz_-4" value="Marketable Securities" style="rounded=0;whiteSpace=wrap;html=1;" parent="IPYmmoNChUyLdm5GVZw2-1" vertex="1">
                    <mxGeometry x="345" y="280" width="70" height="40" as="geometry"/>
                </mxCell>
                <mxCell id="XJrA5cl6L4-JZxvm1Wz_-29" style="edgeStyle=orthogonalEdgeStyle;rounded=0;orthogonalLoop=1;jettySize=auto;html=1;" parent="IPYmmoNChUyLdm5GVZw2-1" source="XJrA5cl6L4-JZxvm1Wz_-5" target="waOp5gOY9GueCPtudxNK-3" edge="1">
                    <mxGeometry relative="1" as="geometry"/>
                </mxCell>
                <mxCell id="XJrA5cl6L4-JZxvm1Wz_-5" value="Prepaid Expenses" style="rounded=0;whiteSpace=wrap;html=1;" parent="IPYmmoNChUyLdm5GVZw2-1" vertex="1">
                    <mxGeometry x="510" y="280" width="70" height="40" as="geometry"/>
                </mxCell>
                <mxCell id="XJrA5cl6L4-JZxvm1Wz_-6" value="Other Liquid Assets" style="rounded=0;whiteSpace=wrap;html=1;" parent="IPYmmoNChUyLdm5GVZw2-1" vertex="1">
                    <mxGeometry x="180" y="280" width="70" height="40" as="geometry"/>
                </mxCell>
                <mxCell id="XJrA5cl6L4-JZxvm1Wz_-7" value="Bank Balances" style="rounded=0;whiteSpace=wrap;html=1;fillColor=#60a917;strokeColor=#2D7600;fontColor=#ffffff;" parent="IPYmmoNChUyLdm5GVZw2-1" vertex="1">
                    <mxGeometry x="100" y="340" width="70" height="40" as="geometry"/>
                </mxCell>
                <mxCell id="XJrA5cl6L4-JZxvm1Wz_-8" value="Bank OverDraft&lt;br&gt;" style="rounded=0;whiteSpace=wrap;html=1;fillColor=#60a917;strokeColor=#2D7600;fontColor=#ffffff;" parent="IPYmmoNChUyLdm5GVZw2-1" vertex="1">
                    <mxGeometry x="100" y="390" width="70" height="40" as="geometry"/>
                </mxCell>
                <mxCell id="XJrA5cl6L4-JZxvm1Wz_-9" value="Cheques" style="rounded=0;whiteSpace=wrap;html=1;fillColor=#60a917;strokeColor=#2D7600;fontColor=#ffffff;" parent="IPYmmoNChUyLdm5GVZw2-1" vertex="1">
                    <mxGeometry x="100" y="440" width="70" height="40" as="geometry"/>
                </mxCell>
                <mxCell id="XJrA5cl6L4-JZxvm1Wz_-10" value="Drafts on Hand" style="rounded=0;whiteSpace=wrap;html=1;fillColor=#60a917;strokeColor=#2D7600;fontColor=#ffffff;" parent="IPYmmoNChUyLdm5GVZw2-1" vertex="1">
                    <mxGeometry x="100" y="490" width="70" height="40" as="geometry"/>
                </mxCell>
                <mxCell id="XJrA5cl6L4-JZxvm1Wz_-13" value="" style="edgeStyle=orthogonalEdgeStyle;rounded=0;orthogonalLoop=1;jettySize=auto;html=1;" parent="IPYmmoNChUyLdm5GVZw2-1" source="XJrA5cl6L4-JZxvm1Wz_-11" target="XJrA5cl6L4-JZxvm1Wz_-12" edge="1">
                    <mxGeometry relative="1" as="geometry"/>
                </mxCell>
                <mxCell id="XJrA5cl6L4-JZxvm1Wz_-11" value="Demand Deposit" style="rounded=0;whiteSpace=wrap;html=1;fillColor=#60a917;strokeColor=#2D7600;fontColor=#ffffff;" parent="IPYmmoNChUyLdm5GVZw2-1" vertex="1">
                    <mxGeometry x="100" y="540" width="70" height="40" as="geometry"/>
                </mxCell>
                <mxCell id="XJrA5cl6L4-JZxvm1Wz_-34" value="" style="edgeStyle=orthogonalEdgeStyle;rounded=0;orthogonalLoop=1;jettySize=auto;html=1;" parent="IPYmmoNChUyLdm5GVZw2-1" source="XJrA5cl6L4-JZxvm1Wz_-12" edge="1">
                    <mxGeometry relative="1" as="geometry">
                        <mxPoint x="135" y="670" as="targetPoint"/>
                    </mxGeometry>
                </mxCell>
                <mxCell id="XJrA5cl6L4-JZxvm1Wz_-12" value="Short term investments" style="rounded=0;whiteSpace=wrap;html=1;fillColor=#60a917;strokeColor=#2D7600;fontColor=#ffffff;" parent="IPYmmoNChUyLdm5GVZw2-1" vertex="1">
                    <mxGeometry x="100" y="600" width="70" height="40" as="geometry"/>
                </mxCell>
                <mxCell id="XJrA5cl6L4-JZxvm1Wz_-30" style="edgeStyle=orthogonalEdgeStyle;rounded=0;orthogonalLoop=1;jettySize=auto;html=1;exitX=0.5;exitY=1;exitDx=0;exitDy=0;" parent="IPYmmoNChUyLdm5GVZw2-1" source="XJrA5cl6L4-JZxvm1Wz_-15" edge="1">
                    <mxGeometry relative="1" as="geometry">
                        <mxPoint x="510" y="620" as="targetPoint"/>
                    </mxGeometry>
                </mxCell>
                <mxCell id="XJrA5cl6L4-JZxvm1Wz_-15" value="Finished Goods" style="rounded=0;whiteSpace=wrap;html=1;fillColor=#1ba1e2;strokeColor=#006EAF;fontColor=#ffffff;" parent="IPYmmoNChUyLdm5GVZw2-1" vertex="1">
                    <mxGeometry x="425" y="340" width="70" height="40" as="geometry"/>
                </mxCell>
                <mxCell id="XJrA5cl6L4-JZxvm1Wz_-16" value="Work in Progress" style="rounded=0;whiteSpace=wrap;html=1;fillColor=#1ba1e2;strokeColor=#006EAF;fontColor=#ffffff;" parent="IPYmmoNChUyLdm5GVZw2-1" vertex="1">
                    <mxGeometry x="425" y="390" width="70" height="40" as="geometry"/>
                </mxCell>
                <mxCell id="XJrA5cl6L4-JZxvm1Wz_-17" value="Raw material" style="rounded=0;whiteSpace=wrap;html=1;fillColor=#1ba1e2;strokeColor=#006EAF;fontColor=#ffffff;" parent="IPYmmoNChUyLdm5GVZw2-1" vertex="1">
                    <mxGeometry x="425" y="440" width="70" height="40" as="geometry"/>
                </mxCell>
                <mxCell id="XJrA5cl6L4-JZxvm1Wz_-38" value="" style="edgeStyle=orthogonalEdgeStyle;rounded=0;orthogonalLoop=1;jettySize=auto;html=1;" parent="IPYmmoNChUyLdm5GVZw2-1" source="XJrA5cl6L4-JZxvm1Wz_-35" edge="1">
                    <mxGeometry relative="1" as="geometry">
                        <mxPoint x="295" y="680" as="targetPoint"/>
                    </mxGeometry>
                </mxCell>
                <mxCell id="XJrA5cl6L4-JZxvm1Wz_-35" value="&lt;font color=&quot;#4d9900&quot;&gt;Link to a user&lt;/font&gt;" style="shape=umlActor;verticalLabelPosition=bottom;labelBackgroundColor=#ffffff;verticalAlign=top;html=1;outlineConnect=0;" parent="IPYmmoNChUyLdm5GVZw2-1" vertex="1">
                    <mxGeometry x="280" y="420" width="30" height="60" as="geometry"/>
                </mxCell>
                <mxCell id="XJrA5cl6L4-JZxvm1Wz_-36" style="edgeStyle=orthogonalEdgeStyle;rounded=0;orthogonalLoop=1;jettySize=auto;html=1;" parent="IPYmmoNChUyLdm5GVZw2-1" source="XJrA5cl6L4-JZxvm1Wz_-3" target="XJrA5cl6L4-JZxvm1Wz_-35" edge="1">
                    <mxGeometry relative="1" as="geometry">
                        <mxPoint x="295" y="680" as="targetPoint"/>
                        <mxPoint x="295" y="320" as="sourcePoint"/>
                    </mxGeometry>
                </mxCell>
                <mxCell id="XJrA5cl6L4-JZxvm1Wz_-59" value="" style="edgeStyle=orthogonalEdgeStyle;rounded=0;orthogonalLoop=1;jettySize=auto;html=1;" parent="IPYmmoNChUyLdm5GVZw2-1" source="XJrA5cl6L4-JZxvm1Wz_-40" edge="1">
                    <mxGeometry relative="1" as="geometry">
                        <mxPoint x="745" y="640" as="targetPoint"/>
                    </mxGeometry>
                </mxCell>
                <mxCell id="XJrA5cl6L4-JZxvm1Wz_-40" value="Computer Equipment" style="rounded=0;whiteSpace=wrap;html=1;fillColor=#6a00ff;strokeColor=#3700CC;fontColor=#ffffff;" parent="IPYmmoNChUyLdm5GVZw2-1" vertex="1">
                    <mxGeometry x="710" y="290" width="70" height="40" as="geometry"/>
                </mxCell>
                <mxCell id="XJrA5cl6L4-JZxvm1Wz_-58" value="Desktop Computers" style="rounded=0;whiteSpace=wrap;html=1;fillColor=#6a00ff;strokeColor=#3700CC;fontColor=#ffffff;" parent="IPYmmoNChUyLdm5GVZw2-1" vertex="1">
                    <mxGeometry x="710" y="410" width="70" height="40" as="geometry"/>
                </mxCell>
                <mxCell id="XJrA5cl6L4-JZxvm1Wz_-69" style="edgeStyle=orthogonalEdgeStyle;rounded=0;orthogonalLoop=1;jettySize=auto;html=1;" parent="IPYmmoNChUyLdm5GVZw2-1" source="XJrA5cl6L4-JZxvm1Wz_-41" edge="1">
                    <mxGeometry relative="1" as="geometry">
                        <mxPoint x="1295" y="640" as="targetPoint"/>
                    </mxGeometry>
                </mxCell>
                <mxCell id="XJrA5cl6L4-JZxvm1Wz_-41" value="Computer Software" style="rounded=0;whiteSpace=wrap;html=1;" parent="IPYmmoNChUyLdm5GVZw2-1" vertex="1">
                    <mxGeometry x="1260" y="290" width="70" height="40" as="geometry"/>
                </mxCell>
                <mxCell id="XJrA5cl6L4-JZxvm1Wz_-70" style="edgeStyle=orthogonalEdgeStyle;rounded=0;orthogonalLoop=1;jettySize=auto;html=1;" parent="IPYmmoNChUyLdm5GVZw2-1" source="XJrA5cl6L4-JZxvm1Wz_-42" edge="1">
                    <mxGeometry relative="1" as="geometry">
                        <mxPoint x="1385" y="640" as="targetPoint"/>
                    </mxGeometry>
                </mxCell>
                <mxCell id="XJrA5cl6L4-JZxvm1Wz_-42" value="Construction in progress" style="rounded=0;whiteSpace=wrap;html=1;" parent="IPYmmoNChUyLdm5GVZw2-1" vertex="1">
                    <mxGeometry x="1350" y="290" width="70" height="40" as="geometry"/>
                </mxCell>
                <mxCell id="XJrA5cl6L4-JZxvm1Wz_-64" style="edgeStyle=orthogonalEdgeStyle;rounded=0;orthogonalLoop=1;jettySize=auto;html=1;" parent="IPYmmoNChUyLdm5GVZw2-1" source="XJrA5cl6L4-JZxvm1Wz_-43" edge="1">
                    <mxGeometry relative="1" as="geometry">
                        <mxPoint x="1115" y="640" as="targetPoint"/>
                    </mxGeometry>
                </mxCell>
                <mxCell id="XJrA5cl6L4-JZxvm1Wz_-43" value="Furniture and fixtures" style="rounded=0;whiteSpace=wrap;html=1;" parent="IPYmmoNChUyLdm5GVZw2-1" vertex="1">
                    <mxGeometry x="1080" y="290" width="70" height="40" as="geometry"/>
                </mxCell>
                <mxCell id="XJrA5cl6L4-JZxvm1Wz_-67" value="" style="edgeStyle=orthogonalEdgeStyle;rounded=0;orthogonalLoop=1;jettySize=auto;html=1;" parent="IPYmmoNChUyLdm5GVZw2-1" source="XJrA5cl6L4-JZxvm1Wz_-44" edge="1">
                    <mxGeometry relative="1" as="geometry">
                        <mxPoint x="1200" y="640" as="targetPoint"/>
                    </mxGeometry>
                </mxCell>
                <mxCell id="XJrA5cl6L4-JZxvm1Wz_-44" value="Intangible assets" style="rounded=0;whiteSpace=wrap;html=1;fillColor=#fa6800;strokeColor=#C73500;fontColor=#ffffff;" parent="IPYmmoNChUyLdm5GVZw2-1" vertex="1">
                    <mxGeometry x="1170" y="290" width="70" height="40" as="geometry"/>
                </mxCell>
                <mxCell id="XJrA5cl6L4-JZxvm1Wz_-66" value="Radio Licenses" style="rounded=0;whiteSpace=wrap;html=1;fillColor=#fa6800;strokeColor=#C73500;fontColor=#ffffff;" parent="IPYmmoNChUyLdm5GVZw2-1" vertex="1">
                    <mxGeometry x="1170" y="410" width="70" height="40" as="geometry"/>
                </mxCell>
                <mxCell id="XJrA5cl6L4-JZxvm1Wz_-63" style="edgeStyle=orthogonalEdgeStyle;rounded=0;orthogonalLoop=1;jettySize=auto;html=1;" parent="IPYmmoNChUyLdm5GVZw2-1" source="XJrA5cl6L4-JZxvm1Wz_-45" edge="1">
                    <mxGeometry relative="1" as="geometry">
                        <mxPoint x="1025" y="640" as="targetPoint"/>
                    </mxGeometry>
                </mxCell>
                <mxCell id="XJrA5cl6L4-JZxvm1Wz_-45" value="Land" style="rounded=0;whiteSpace=wrap;html=1;" parent="IPYmmoNChUyLdm5GVZw2-1" vertex="1">
                    <mxGeometry x="990" y="290" width="70" height="40" as="geometry"/>
                </mxCell>
                <mxCell id="XJrA5cl6L4-JZxvm1Wz_-62" style="edgeStyle=orthogonalEdgeStyle;rounded=0;orthogonalLoop=1;jettySize=auto;html=1;" parent="IPYmmoNChUyLdm5GVZw2-1" source="XJrA5cl6L4-JZxvm1Wz_-46" edge="1">
                    <mxGeometry relative="1" as="geometry">
                        <mxPoint x="930" y="640" as="targetPoint"/>
                    </mxGeometry>
                </mxCell>
                <mxCell id="XJrA5cl6L4-JZxvm1Wz_-46" value="leasehold improvements" style="rounded=0;whiteSpace=wrap;html=1;" parent="IPYmmoNChUyLdm5GVZw2-1" vertex="1">
                    <mxGeometry x="890" y="290" width="80" height="40" as="geometry"/>
                </mxCell>
                <mxCell id="XJrA5cl6L4-JZxvm1Wz_-61" style="edgeStyle=orthogonalEdgeStyle;rounded=0;orthogonalLoop=1;jettySize=auto;html=1;" parent="IPYmmoNChUyLdm5GVZw2-1" source="XJrA5cl6L4-JZxvm1Wz_-47" edge="1">
                    <mxGeometry relative="1" as="geometry">
                        <mxPoint x="845" y="640" as="targetPoint"/>
                    </mxGeometry>
                </mxCell>
                <mxCell id="XJrA5cl6L4-JZxvm1Wz_-47" value="Machinery" style="rounded=0;whiteSpace=wrap;html=1;" parent="IPYmmoNChUyLdm5GVZw2-1" vertex="1">
                    <mxGeometry x="810" y="290" width="70" height="40" as="geometry"/>
                </mxCell>
                <mxCell id="XJrA5cl6L4-JZxvm1Wz_-56" style="edgeStyle=orthogonalEdgeStyle;rounded=0;orthogonalLoop=1;jettySize=auto;html=1;" parent="IPYmmoNChUyLdm5GVZw2-1" source="XJrA5cl6L4-JZxvm1Wz_-48" edge="1">
                    <mxGeometry relative="1" as="geometry">
                        <mxPoint x="650" y="640" as="targetPoint"/>
                    </mxGeometry>
                </mxCell>
                <mxCell id="XJrA5cl6L4-JZxvm1Wz_-48" value="Office Equipment" style="rounded=0;whiteSpace=wrap;html=1;" parent="IPYmmoNChUyLdm5GVZw2-1" vertex="1">
                    <mxGeometry x="615" y="290" width="70" height="40" as="geometry"/>
                </mxCell>
                <mxCell id="XJrA5cl6L4-JZxvm1Wz_-71" style="edgeStyle=orthogonalEdgeStyle;rounded=0;orthogonalLoop=1;jettySize=auto;html=1;" parent="IPYmmoNChUyLdm5GVZw2-1" source="XJrA5cl6L4-JZxvm1Wz_-52" edge="1">
                    <mxGeometry relative="1" as="geometry">
                        <mxPoint x="1475" y="640" as="targetPoint"/>
                    </mxGeometry>
                </mxCell>
                <mxCell id="XJrA5cl6L4-JZxvm1Wz_-52" value="Vehicles" style="rounded=0;whiteSpace=wrap;html=1;" parent="IPYmmoNChUyLdm5GVZw2-1" vertex="1">
                    <mxGeometry x="1440" y="290" width="70" height="40" as="geometry"/>
                </mxCell>
                <mxCell id="XJrA5cl6L4-JZxvm1Wz_-57" value="Servers" style="rounded=0;whiteSpace=wrap;html=1;fillColor=#6a00ff;strokeColor=#3700CC;fontColor=#ffffff;" parent="IPYmmoNChUyLdm5GVZw2-1" vertex="1">
                    <mxGeometry x="710" y="350" width="70" height="40" as="geometry"/>
                </mxCell>
                <mxCell id="XJrA5cl6L4-JZxvm1Wz_-60" value="Laptops" style="rounded=0;whiteSpace=wrap;html=1;fillColor=#6a00ff;strokeColor=#3700CC;fontColor=#ffffff;" parent="IPYmmoNChUyLdm5GVZw2-1" vertex="1">
                    <mxGeometry x="710" y="470" width="70" height="40" as="geometry"/>
                </mxCell>
                <mxCell id="XJrA5cl6L4-JZxvm1Wz_-65" value="Patents" style="rounded=0;whiteSpace=wrap;html=1;fillColor=#fa6800;strokeColor=#C73500;fontColor=#ffffff;" parent="IPYmmoNChUyLdm5GVZw2-1" vertex="1">
                    <mxGeometry x="1170" y="360" width="70" height="40" as="geometry"/>
                </mxCell>
                <mxCell id="XJrA5cl6L4-JZxvm1Wz_-68" value="Copyrights" style="rounded=0;whiteSpace=wrap;html=1;fillColor=#fa6800;strokeColor=#C73500;fontColor=#ffffff;" parent="IPYmmoNChUyLdm5GVZw2-1" vertex="1">
                    <mxGeometry x="1170" y="470" width="70" height="40" as="geometry"/>
                </mxCell>
                <mxCell id="XJrA5cl6L4-JZxvm1Wz_-72" value="" style="endArrow=classic;html=1;" parent="IPYmmoNChUyLdm5GVZw2-1" target="waOp5gOY9GueCPtudxNK-3" edge="1">
                    <mxGeometry width="50" height="50" relative="1" as="geometry">
                        <mxPoint x="1480" y="649" as="sourcePoint"/>
                        <mxPoint x="1430" y="490" as="targetPoint"/>
                    </mxGeometry>
                </mxCell>
                <mxCell id="uoXhtfPmWp4suCaWeP9a-0" value="Cash" style="rounded=0;whiteSpace=wrap;html=1;" parent="IPYmmoNChUyLdm5GVZw2-1" vertex="1">
                    <mxGeometry x="330" y="970" width="120" height="60" as="geometry"/>
                </mxCell>
                <mxCell id="uoXhtfPmWp4suCaWeP9a-9" style="edgeStyle=orthogonalEdgeStyle;rounded=0;orthogonalLoop=1;jettySize=auto;html=1;entryX=0.5;entryY=0;entryDx=0;entryDy=0;" parent="IPYmmoNChUyLdm5GVZw2-1" source="uoXhtfPmWp4suCaWeP9a-1" target="uoXhtfPmWp4suCaWeP9a-4" edge="1">
                    <mxGeometry relative="1" as="geometry"/>
                </mxCell>
                <mxCell id="uoXhtfPmWp4suCaWeP9a-10" style="edgeStyle=orthogonalEdgeStyle;rounded=0;orthogonalLoop=1;jettySize=auto;html=1;entryX=0.5;entryY=0;entryDx=0;entryDy=0;" parent="IPYmmoNChUyLdm5GVZw2-1" source="uoXhtfPmWp4suCaWeP9a-1" target="uoXhtfPmWp4suCaWeP9a-5" edge="1">
                    <mxGeometry relative="1" as="geometry">
                        <Array as="points">
                            <mxPoint x="620" y="1050"/>
                            <mxPoint x="720" y="1050"/>
                        </Array>
                    </mxGeometry>
                </mxCell>
                <mxCell id="uoXhtfPmWp4suCaWeP9a-12" value="" style="edgeStyle=orthogonalEdgeStyle;rounded=0;orthogonalLoop=1;jettySize=auto;html=1;entryX=0.5;entryY=0;entryDx=0;entryDy=0;" parent="IPYmmoNChUyLdm5GVZw2-1" source="uoXhtfPmWp4suCaWeP9a-1" target="uoXhtfPmWp4suCaWeP9a-6" edge="1">
                    <mxGeometry relative="1" as="geometry">
                        <mxPoint x="970" y="1010" as="targetPoint"/>
                    </mxGeometry>
                </mxCell>
                <mxCell id="uoXhtfPmWp4suCaWeP9a-1" value="Credit" style="rounded=0;whiteSpace=wrap;html=1;" parent="IPYmmoNChUyLdm5GVZw2-1" vertex="1">
                    <mxGeometry x="560" y="970" width="120" height="60" as="geometry"/>
                </mxCell>
                <mxCell id="uoXhtfPmWp4suCaWeP9a-4" value="Deposit" style="rounded=0;whiteSpace=wrap;html=1;" parent="IPYmmoNChUyLdm5GVZw2-1" vertex="1">
                    <mxGeometry x="510" y="1070" width="120" height="30" as="geometry"/>
                </mxCell>
                <mxCell id="uoXhtfPmWp4suCaWeP9a-5" value="Loan Amount" style="rounded=0;whiteSpace=wrap;html=1;" parent="IPYmmoNChUyLdm5GVZw2-1" vertex="1">
                    <mxGeometry x="660" y="1070" width="120" height="30" as="geometry"/>
                </mxCell>
                <mxCell id="uoXhtfPmWp4suCaWeP9a-13" style="edgeStyle=orthogonalEdgeStyle;rounded=0;orthogonalLoop=1;jettySize=auto;html=1;entryX=0.5;entryY=0;entryDx=0;entryDy=0;" parent="IPYmmoNChUyLdm5GVZw2-1" source="uoXhtfPmWp4suCaWeP9a-6" target="uoXhtfPmWp4suCaWeP9a-7" edge="1">
                    <mxGeometry relative="1" as="geometry"/>
                </mxCell>
                <mxCell id="uoXhtfPmWp4suCaWeP9a-16" style="edgeStyle=orthogonalEdgeStyle;rounded=0;orthogonalLoop=1;jettySize=auto;html=1;entryX=0.5;entryY=0;entryDx=0;entryDy=0;" parent="IPYmmoNChUyLdm5GVZw2-1" source="uoXhtfPmWp4suCaWeP9a-6" target="uoXhtfPmWp4suCaWeP9a-8" edge="1">
                    <mxGeometry relative="1" as="geometry"/>
                </mxCell>
                <mxCell id="uoXhtfPmWp4suCaWeP9a-6" value="Interest" style="rounded=0;whiteSpace=wrap;html=1;" parent="IPYmmoNChUyLdm5GVZw2-1" vertex="1">
                    <mxGeometry x="810" y="1070" width="120" height="30" as="geometry"/>
                </mxCell>
                <mxCell id="uoXhtfPmWp4suCaWeP9a-7" value="Fixed" style="rounded=0;whiteSpace=wrap;html=1;" parent="IPYmmoNChUyLdm5GVZw2-1" vertex="1">
                    <mxGeometry x="780" y="1130" width="80" height="20" as="geometry"/>
                </mxCell>
                <mxCell id="uoXhtfPmWp4suCaWeP9a-8" value="Variable" style="rounded=0;whiteSpace=wrap;html=1;" parent="IPYmmoNChUyLdm5GVZw2-1" vertex="1">
                    <mxGeometry x="870" y="1130" width="80" height="20" as="geometry"/>
                </mxCell>
                <mxCell id="uoXhtfPmWp4suCaWeP9a-17" value="Appreciation/Depreciation" style="rounded=0;whiteSpace=wrap;html=1;" parent="IPYmmoNChUyLdm5GVZw2-1" vertex="1">
                    <mxGeometry x="425" y="730" width="160" height="60" as="geometry"/>
                </mxCell>
                <mxCell id="uoXhtfPmWp4suCaWeP9a-18" value="" style="edgeStyle=orthogonalEdgeStyle;rounded=0;orthogonalLoop=1;jettySize=auto;html=1;" parent="IPYmmoNChUyLdm5GVZw2-1" source="waOp5gOY9GueCPtudxNK-3" target="uoXhtfPmWp4suCaWeP9a-17" edge="1">
                    <mxGeometry relative="1" as="geometry">
                        <mxPoint x="510" y="690" as="sourcePoint"/>
                        <mxPoint x="500" y="850" as="targetPoint"/>
                    </mxGeometry>
                </mxCell>
            </root>
        </mxGraphModel>
    </diagram>
    <diagram id="XxAQkDI5Bk1g_GwmfnUV" name="Book Entries">
        <mxGraphModel dx="1125" dy="806" grid="1" gridSize="10" guides="1" tooltips="1" connect="1" arrows="1" fold="1" page="1" pageScale="1" pageWidth="3300" pageHeight="4681" math="0" shadow="0">
            <root>
                <mxCell id="bhLoS5Q-9nMrikbAch8--0"/>
                <mxCell id="bhLoS5Q-9nMrikbAch8--1" parent="bhLoS5Q-9nMrikbAch8--0"/>
                <mxCell id="52Dz4_7XV_ChBpZ4pIKk-0" value="Transaction Type" style="ellipse;whiteSpace=wrap;html=1;aspect=fixed;fillColor=#60a917;strokeColor=#2D7600;fontColor=#ffffff;" parent="bhLoS5Q-9nMrikbAch8--1" vertex="1">
                    <mxGeometry x="230" y="40" width="80" height="80" as="geometry"/>
                </mxCell>
                <mxCell id="52Dz4_7XV_ChBpZ4pIKk-1" style="edgeStyle=orthogonalEdgeStyle;rounded=0;orthogonalLoop=1;jettySize=auto;html=1;entryX=0.5;entryY=0;entryDx=0;entryDy=0;fillColor=#60a917;strokeColor=#2D7600;" parent="bhLoS5Q-9nMrikbAch8--1" target="52Dz4_7XV_ChBpZ4pIKk-2" edge="1">
                    <mxGeometry relative="1" as="geometry">
                        <mxPoint x="230" y="80" as="sourcePoint"/>
                    </mxGeometry>
                </mxCell>
                <mxCell id="52Dz4_7XV_ChBpZ4pIKk-16" value="" style="edgeStyle=orthogonalEdgeStyle;rounded=0;orthogonalLoop=1;jettySize=auto;html=1;" parent="bhLoS5Q-9nMrikbAch8--1" source="52Dz4_7XV_ChBpZ4pIKk-2" target="52Dz4_7XV_ChBpZ4pIKk-15" edge="1">
                    <mxGeometry relative="1" as="geometry"/>
                </mxCell>
                <mxCell id="52Dz4_7XV_ChBpZ4pIKk-18" style="edgeStyle=orthogonalEdgeStyle;rounded=0;orthogonalLoop=1;jettySize=auto;html=1;" parent="bhLoS5Q-9nMrikbAch8--1" source="52Dz4_7XV_ChBpZ4pIKk-2" target="52Dz4_7XV_ChBpZ4pIKk-17" edge="1">
                    <mxGeometry relative="1" as="geometry"/>
                </mxCell>
                <mxCell id="52Dz4_7XV_ChBpZ4pIKk-2" value="Cash" style="rounded=0;whiteSpace=wrap;html=1;fillColor=#60a917;strokeColor=#2D7600;fontColor=#ffffff;" parent="bhLoS5Q-9nMrikbAch8--1" vertex="1">
                    <mxGeometry x="100" y="160" width="120" height="60" as="geometry"/>
                </mxCell>
                <mxCell id="52Dz4_7XV_ChBpZ4pIKk-17" value="Credit Cash&lt;br&gt;R12 000" style="rounded=0;whiteSpace=wrap;html=1;fillColor=#a20025;strokeColor=#6F0000;fontColor=#ffffff;" parent="bhLoS5Q-9nMrikbAch8--1" vertex="1">
                    <mxGeometry x="190" y="410" width="120" height="60" as="geometry"/>
                </mxCell>
                <mxCell id="52Dz4_7XV_ChBpZ4pIKk-15" value="Debit Assets:&lt;br&gt;Vehicle R12 000" style="rounded=0;whiteSpace=wrap;html=1;fillColor=#008a00;strokeColor=#005700;fontColor=#ffffff;" parent="bhLoS5Q-9nMrikbAch8--1" vertex="1">
                    <mxGeometry x="10" y="410" width="120" height="60" as="geometry"/>
                </mxCell>
                <mxCell id="52Dz4_7XV_ChBpZ4pIKk-3" value="Credit" style="rounded=0;whiteSpace=wrap;html=1;fillColor=#60a917;strokeColor=#2D7600;fontColor=#ffffff;" parent="bhLoS5Q-9nMrikbAch8--1" vertex="1">
                    <mxGeometry x="330" y="160" width="120" height="60" as="geometry"/>
                </mxCell>
                <mxCell id="52Dz4_7XV_ChBpZ4pIKk-4" style="edgeStyle=orthogonalEdgeStyle;rounded=0;orthogonalLoop=1;jettySize=auto;html=1;entryX=0.5;entryY=0;entryDx=0;entryDy=0;fillColor=#60a917;strokeColor=#2D7600;" parent="bhLoS5Q-9nMrikbAch8--1" target="52Dz4_7XV_ChBpZ4pIKk-3" edge="1">
                    <mxGeometry relative="1" as="geometry">
                        <mxPoint x="310" y="80" as="sourcePoint"/>
                    </mxGeometry>
                </mxCell>
                <mxCell id="52Dz4_7XV_ChBpZ4pIKk-5" value="" style="edgeStyle=orthogonalEdgeStyle;rounded=0;orthogonalLoop=1;jettySize=auto;html=1;entryX=0.5;entryY=0;entryDx=0;entryDy=0;fillColor=#60a917;strokeColor=#2D7600;" parent="bhLoS5Q-9nMrikbAch8--1" source="52Dz4_7XV_ChBpZ4pIKk-3" target="52Dz4_7XV_ChBpZ4pIKk-10" edge="1">
                    <mxGeometry relative="1" as="geometry">
                        <mxPoint x="740" y="200" as="targetPoint"/>
                        <Array as="points">
                            <mxPoint x="390" y="310"/>
                            <mxPoint x="680" y="310"/>
                            <mxPoint x="680" y="410"/>
                            <mxPoint x="690" y="410"/>
                        </Array>
                    </mxGeometry>
                </mxCell>
                <mxCell id="52Dz4_7XV_ChBpZ4pIKk-6" style="edgeStyle=orthogonalEdgeStyle;rounded=0;orthogonalLoop=1;jettySize=auto;html=1;entryX=0.5;entryY=0;entryDx=0;entryDy=0;fillColor=#60a917;strokeColor=#2D7600;" parent="bhLoS5Q-9nMrikbAch8--1" source="52Dz4_7XV_ChBpZ4pIKk-3" target="52Dz4_7XV_ChBpZ4pIKk-9" edge="1">
                    <mxGeometry relative="1" as="geometry">
                        <Array as="points">
                            <mxPoint x="390" y="310"/>
                            <mxPoint x="520" y="310"/>
                            <mxPoint x="520" y="350"/>
                            <mxPoint x="540" y="350"/>
                        </Array>
                    </mxGeometry>
                </mxCell>
                <mxCell id="52Dz4_7XV_ChBpZ4pIKk-7" style="edgeStyle=orthogonalEdgeStyle;rounded=0;orthogonalLoop=1;jettySize=auto;html=1;entryX=0.5;entryY=0;entryDx=0;entryDy=0;fillColor=#60a917;strokeColor=#2D7600;" parent="bhLoS5Q-9nMrikbAch8--1" source="52Dz4_7XV_ChBpZ4pIKk-21" target="52Dz4_7XV_ChBpZ4pIKk-8" edge="1">
                    <mxGeometry relative="1" as="geometry"/>
                </mxCell>
                <mxCell id="IsbyjksBu4wv-zQFAn17-2" style="edgeStyle=orthogonalEdgeStyle;rounded=0;orthogonalLoop=1;jettySize=auto;html=1;" parent="bhLoS5Q-9nMrikbAch8--1" source="52Dz4_7XV_ChBpZ4pIKk-8" target="IsbyjksBu4wv-zQFAn17-1" edge="1">
                    <mxGeometry relative="1" as="geometry"/>
                </mxCell>
                <mxCell id="IsbyjksBu4wv-zQFAn17-3" style="edgeStyle=orthogonalEdgeStyle;rounded=0;orthogonalLoop=1;jettySize=auto;html=1;entryX=0.5;entryY=0;entryDx=0;entryDy=0;" parent="bhLoS5Q-9nMrikbAch8--1" source="52Dz4_7XV_ChBpZ4pIKk-8" target="IsbyjksBu4wv-zQFAn17-0" edge="1">
                    <mxGeometry relative="1" as="geometry"/>
                </mxCell>
                <mxCell id="52Dz4_7XV_ChBpZ4pIKk-8" value="Deposit" style="rounded=0;whiteSpace=wrap;html=1;fillColor=#60a917;strokeColor=#2D7600;fontColor=#ffffff;" parent="bhLoS5Q-9nMrikbAch8--1" vertex="1">
                    <mxGeometry x="330" y="430" width="120" height="30" as="geometry"/>
                </mxCell>
                <mxCell id="IsbyjksBu4wv-zQFAn17-6" style="edgeStyle=orthogonalEdgeStyle;rounded=0;orthogonalLoop=1;jettySize=auto;html=1;" parent="bhLoS5Q-9nMrikbAch8--1" source="52Dz4_7XV_ChBpZ4pIKk-9" target="IsbyjksBu4wv-zQFAn17-5" edge="1">
                    <mxGeometry relative="1" as="geometry"/>
                </mxCell>
                <mxCell id="IsbyjksBu4wv-zQFAn17-7" style="edgeStyle=orthogonalEdgeStyle;rounded=0;orthogonalLoop=1;jettySize=auto;html=1;entryX=0.5;entryY=0;entryDx=0;entryDy=0;" parent="bhLoS5Q-9nMrikbAch8--1" source="52Dz4_7XV_ChBpZ4pIKk-9" target="IsbyjksBu4wv-zQFAn17-4" edge="1">
                    <mxGeometry relative="1" as="geometry"/>
                </mxCell>
                <mxCell id="52Dz4_7XV_ChBpZ4pIKk-9" value="Loan Amount" style="rounded=0;whiteSpace=wrap;html=1;fillColor=#60a917;strokeColor=#2D7600;fontColor=#ffffff;" parent="bhLoS5Q-9nMrikbAch8--1" vertex="1">
                    <mxGeometry x="480" y="430" width="120" height="30" as="geometry"/>
                </mxCell>
                <mxCell id="52Dz4_7XV_ChBpZ4pIKk-10" value="Interest" style="rounded=0;whiteSpace=wrap;html=1;fillColor=#60a917;strokeColor=#2D7600;fontColor=#ffffff;" parent="bhLoS5Q-9nMrikbAch8--1" vertex="1">
                    <mxGeometry x="630" y="430" width="120" height="30" as="geometry"/>
                </mxCell>
                <mxCell id="IsbyjksBu4wv-zQFAn17-15" style="edgeStyle=orthogonalEdgeStyle;rounded=0;orthogonalLoop=1;jettySize=auto;html=1;" parent="bhLoS5Q-9nMrikbAch8--1" source="52Dz4_7XV_ChBpZ4pIKk-11" edge="1">
                    <mxGeometry relative="1" as="geometry">
                        <mxPoint x="680" y="570" as="targetPoint"/>
                        <Array as="points">
                            <mxPoint x="730" y="540"/>
                            <mxPoint x="680" y="540"/>
                        </Array>
                    </mxGeometry>
                </mxCell>
                <mxCell id="52Dz4_7XV_ChBpZ4pIKk-11" value="Variable" style="rounded=0;whiteSpace=wrap;html=1;fillColor=#60a917;strokeColor=#2D7600;fontColor=#ffffff;" parent="bhLoS5Q-9nMrikbAch8--1" vertex="1">
                    <mxGeometry x="690" y="490" width="80" height="20" as="geometry"/>
                </mxCell>
                <mxCell id="IsbyjksBu4wv-zQFAn17-14" style="edgeStyle=orthogonalEdgeStyle;rounded=0;orthogonalLoop=1;jettySize=auto;html=1;" parent="bhLoS5Q-9nMrikbAch8--1" source="52Dz4_7XV_ChBpZ4pIKk-12" edge="1">
                    <mxGeometry relative="1" as="geometry">
                        <mxPoint x="680" y="570" as="targetPoint"/>
                    </mxGeometry>
                </mxCell>
                <mxCell id="52Dz4_7XV_ChBpZ4pIKk-12" value="Fixed" style="rounded=0;whiteSpace=wrap;html=1;fillColor=#60a917;strokeColor=#2D7600;fontColor=#ffffff;" parent="bhLoS5Q-9nMrikbAch8--1" vertex="1">
                    <mxGeometry x="600" y="490" width="80" height="20" as="geometry"/>
                </mxCell>
                <mxCell id="52Dz4_7XV_ChBpZ4pIKk-13" style="edgeStyle=orthogonalEdgeStyle;rounded=0;orthogonalLoop=1;jettySize=auto;html=1;entryX=0.5;entryY=0;entryDx=0;entryDy=0;fillColor=#60a917;strokeColor=#2D7600;" parent="bhLoS5Q-9nMrikbAch8--1" source="52Dz4_7XV_ChBpZ4pIKk-10" target="52Dz4_7XV_ChBpZ4pIKk-11" edge="1">
                    <mxGeometry relative="1" as="geometry"/>
                </mxCell>
                <mxCell id="52Dz4_7XV_ChBpZ4pIKk-14" style="edgeStyle=orthogonalEdgeStyle;rounded=0;orthogonalLoop=1;jettySize=auto;html=1;entryX=0.5;entryY=0;entryDx=0;entryDy=0;fillColor=#60a917;strokeColor=#2D7600;" parent="bhLoS5Q-9nMrikbAch8--1" source="52Dz4_7XV_ChBpZ4pIKk-10" target="52Dz4_7XV_ChBpZ4pIKk-12" edge="1">
                    <mxGeometry relative="1" as="geometry"/>
                </mxCell>
                <mxCell id="52Dz4_7XV_ChBpZ4pIKk-20" value="Example: Buy Vehicle cash for R12 000" style="shape=process;whiteSpace=wrap;html=1;backgroundOutline=1;" parent="bhLoS5Q-9nMrikbAch8--1" vertex="1">
                    <mxGeometry x="100" y="230" width="120" height="60" as="geometry"/>
                </mxCell>
                <mxCell id="52Dz4_7XV_ChBpZ4pIKk-22" value="Residual Value" style="rounded=0;whiteSpace=wrap;html=1;fillColor=#60a917;strokeColor=#2D7600;fontColor=#ffffff;" parent="bhLoS5Q-9nMrikbAch8--1" vertex="1">
                    <mxGeometry x="780" y="430" width="120" height="30" as="geometry"/>
                </mxCell>
                <mxCell id="52Dz4_7XV_ChBpZ4pIKk-24" style="edgeStyle=orthogonalEdgeStyle;rounded=0;orthogonalLoop=1;jettySize=auto;html=1;entryX=0.5;entryY=0;entryDx=0;entryDy=0;fillColor=#60a917;strokeColor=#2D7600;" parent="bhLoS5Q-9nMrikbAch8--1" source="52Dz4_7XV_ChBpZ4pIKk-21" target="52Dz4_7XV_ChBpZ4pIKk-22" edge="1">
                    <mxGeometry relative="1" as="geometry"/>
                </mxCell>
                <mxCell id="52Dz4_7XV_ChBpZ4pIKk-26" style="edgeStyle=orthogonalEdgeStyle;rounded=0;orthogonalLoop=1;jettySize=auto;html=1;entryX=0.5;entryY=0;entryDx=0;entryDy=0;" parent="bhLoS5Q-9nMrikbAch8--1" source="52Dz4_7XV_ChBpZ4pIKk-21" target="52Dz4_7XV_ChBpZ4pIKk-25" edge="1">
                    <mxGeometry relative="1" as="geometry"/>
                </mxCell>
                <mxCell id="52Dz4_7XV_ChBpZ4pIKk-21" value="Example: Buy Vehicle&amp;nbsp; for R12 000, Should be good for 5 years with no residual value expected. Pays R3000 down with R9000 financed with 12% interest only vehicle loan (paid annually)" style="shape=process;whiteSpace=wrap;html=1;backgroundOutline=1;" parent="bhLoS5Q-9nMrikbAch8--1" vertex="1">
                    <mxGeometry x="340" y="270" width="350" height="60" as="geometry"/>
                </mxCell>
                <mxCell id="IsbyjksBu4wv-zQFAn17-12" style="edgeStyle=orthogonalEdgeStyle;rounded=0;orthogonalLoop=1;jettySize=auto;html=1;entryX=0.5;entryY=0;entryDx=0;entryDy=0;" parent="bhLoS5Q-9nMrikbAch8--1" source="52Dz4_7XV_ChBpZ4pIKk-25" target="IsbyjksBu4wv-zQFAn17-11" edge="1">
                    <mxGeometry relative="1" as="geometry"/>
                </mxCell>
                <mxCell id="IsbyjksBu4wv-zQFAn17-13" style="edgeStyle=orthogonalEdgeStyle;rounded=0;orthogonalLoop=1;jettySize=auto;html=1;" parent="bhLoS5Q-9nMrikbAch8--1" source="52Dz4_7XV_ChBpZ4pIKk-25" target="IsbyjksBu4wv-zQFAn17-10" edge="1">
                    <mxGeometry relative="1" as="geometry"/>
                </mxCell>
                <mxCell id="52Dz4_7XV_ChBpZ4pIKk-25" value="Depreciation" style="rounded=0;whiteSpace=wrap;html=1;fillColor=#60a917;strokeColor=#2D7600;fontColor=#ffffff;" parent="bhLoS5Q-9nMrikbAch8--1" vertex="1">
                    <mxGeometry x="910" y="430" width="120" height="30" as="geometry"/>
                </mxCell>
                <mxCell id="IsbyjksBu4wv-zQFAn17-0" value="cash" style="rounded=0;whiteSpace=wrap;html=1;fillColor=#a20025;strokeColor=#6F0000;fontColor=#ffffff;" parent="bhLoS5Q-9nMrikbAch8--1" vertex="1">
                    <mxGeometry x="395" y="530" width="80" height="20" as="geometry"/>
                </mxCell>
                <mxCell id="IsbyjksBu4wv-zQFAn17-1" value="assets" style="rounded=0;whiteSpace=wrap;html=1;fillColor=#008a00;strokeColor=#005700;fontColor=#ffffff;" parent="bhLoS5Q-9nMrikbAch8--1" vertex="1">
                    <mxGeometry x="305" y="530" width="80" height="20" as="geometry"/>
                </mxCell>
                <mxCell id="IsbyjksBu4wv-zQFAn17-4" value="long term debt" style="rounded=0;whiteSpace=wrap;html=1;fillColor=#a20025;strokeColor=#6F0000;fontColor=#ffffff;" parent="bhLoS5Q-9nMrikbAch8--1" vertex="1">
                    <mxGeometry x="545" y="590" width="125" height="20" as="geometry"/>
                </mxCell>
                <mxCell id="IsbyjksBu4wv-zQFAn17-5" value="assets" style="rounded=0;whiteSpace=wrap;html=1;fillColor=#008a00;strokeColor=#005700;fontColor=#ffffff;" parent="bhLoS5Q-9nMrikbAch8--1" vertex="1">
                    <mxGeometry x="455" y="590" width="80" height="20" as="geometry"/>
                </mxCell>
                <mxCell id="IsbyjksBu4wv-zQFAn17-8" value="accrued liabilites" style="rounded=0;whiteSpace=wrap;html=1;fillColor=#a20025;strokeColor=#6F0000;fontColor=#ffffff;" parent="bhLoS5Q-9nMrikbAch8--1" vertex="1">
                    <mxGeometry x="730" y="660" width="140" height="20" as="geometry"/>
                </mxCell>
                <mxCell id="IsbyjksBu4wv-zQFAn17-9" value="interest expense" style="rounded=0;whiteSpace=wrap;html=1;fillColor=#008a00;strokeColor=#005700;fontColor=#ffffff;" parent="bhLoS5Q-9nMrikbAch8--1" vertex="1">
                    <mxGeometry x="545" y="660" width="170" height="20" as="geometry"/>
                </mxCell>
                <mxCell id="IsbyjksBu4wv-zQFAn17-10" value="Accumulated deprecition" style="rounded=0;whiteSpace=wrap;html=1;fillColor=#a20025;strokeColor=#6F0000;fontColor=#ffffff;" parent="bhLoS5Q-9nMrikbAch8--1" vertex="1">
                    <mxGeometry x="990" y="540" width="180" height="20" as="geometry"/>
                </mxCell>
                <mxCell id="IsbyjksBu4wv-zQFAn17-11" value="Depreciation" style="rounded=0;whiteSpace=wrap;html=1;fillColor=#008a00;strokeColor=#005700;fontColor=#ffffff;" parent="bhLoS5Q-9nMrikbAch8--1" vertex="1">
                    <mxGeometry x="860" y="540" width="120" height="20" as="geometry"/>
                </mxCell>
                <mxCell id="IsbyjksBu4wv-zQFAn17-16" value="Asset" style="ellipse;whiteSpace=wrap;html=1;aspect=fixed;fillColor=#0050ef;strokeColor=#001DBC;fontColor=#ffffff;" parent="bhLoS5Q-9nMrikbAch8--1" vertex="1">
                    <mxGeometry x="410" width="50" height="50" as="geometry"/>
                </mxCell>
                <mxCell id="IsbyjksBu4wv-zQFAn17-17" value="Liability" style="ellipse;whiteSpace=wrap;html=1;aspect=fixed;fillColor=#6a00ff;strokeColor=#3700CC;fontColor=#ffffff;" parent="bhLoS5Q-9nMrikbAch8--1" vertex="1">
                    <mxGeometry x="500" width="50" height="50" as="geometry"/>
                </mxCell>
                <mxCell id="IsbyjksBu4wv-zQFAn17-18" value="Equity" style="ellipse;whiteSpace=wrap;html=1;aspect=fixed;fillColor=#e3c800;strokeColor=#B09500;fontColor=#ffffff;" parent="bhLoS5Q-9nMrikbAch8--1" vertex="1">
                    <mxGeometry x="580" width="50" height="50" as="geometry"/>
                </mxCell>
                <mxCell id="IsbyjksBu4wv-zQFAn17-24" value="" style="ellipse;whiteSpace=wrap;html=1;aspect=fixed;fillColor=#0050ef;strokeColor=#001DBC;fontColor=#ffffff;" parent="bhLoS5Q-9nMrikbAch8--1" vertex="1">
                    <mxGeometry x="290" y="410" width="20" height="20" as="geometry"/>
                </mxCell>
                <mxCell id="IsbyjksBu4wv-zQFAn17-25" value="" style="ellipse;whiteSpace=wrap;html=1;aspect=fixed;fillColor=#0050ef;strokeColor=#001DBC;fontColor=#ffffff;" parent="bhLoS5Q-9nMrikbAch8--1" vertex="1">
                    <mxGeometry x="110" y="410" width="20" height="20" as="geometry"/>
                </mxCell>
                <mxCell id="IsbyjksBu4wv-zQFAn17-27" value="" style="ellipse;whiteSpace=wrap;html=1;aspect=fixed;fillColor=#0050ef;strokeColor=#001DBC;fontColor=#ffffff;" parent="bhLoS5Q-9nMrikbAch8--1" vertex="1">
                    <mxGeometry x="365" y="530" width="20" height="20" as="geometry"/>
                </mxCell>
                <mxCell id="IsbyjksBu4wv-zQFAn17-28" value="" style="ellipse;whiteSpace=wrap;html=1;aspect=fixed;fillColor=#0050ef;strokeColor=#001DBC;fontColor=#ffffff;" parent="bhLoS5Q-9nMrikbAch8--1" vertex="1">
                    <mxGeometry x="455" y="530" width="20" height="20" as="geometry"/>
                </mxCell>
                <mxCell id="IsbyjksBu4wv-zQFAn17-29" value="" style="ellipse;whiteSpace=wrap;html=1;aspect=fixed;fillColor=#0050ef;strokeColor=#001DBC;fontColor=#ffffff;" parent="bhLoS5Q-9nMrikbAch8--1" vertex="1">
                    <mxGeometry x="515" y="590" width="20" height="20" as="geometry"/>
                </mxCell>
                <mxCell id="IsbyjksBu4wv-zQFAn17-30" value="" style="ellipse;whiteSpace=wrap;html=1;aspect=fixed;fillColor=#6a00ff;strokeColor=#3700CC;fontColor=#ffffff;" parent="bhLoS5Q-9nMrikbAch8--1" vertex="1">
                    <mxGeometry x="650" y="590" width="20" height="20" as="geometry"/>
                </mxCell>
                <mxCell id="IsbyjksBu4wv-zQFAn17-31" value="" style="ellipse;whiteSpace=wrap;html=1;aspect=fixed;fillColor=#e3c800;strokeColor=#B09500;fontColor=#ffffff;" parent="bhLoS5Q-9nMrikbAch8--1" vertex="1">
                    <mxGeometry x="695" y="660" width="20" height="20" as="geometry"/>
                </mxCell>
                <mxCell id="IsbyjksBu4wv-zQFAn17-35" value="" style="ellipse;whiteSpace=wrap;html=1;aspect=fixed;fillColor=#6a00ff;strokeColor=#3700CC;fontColor=#ffffff;" parent="bhLoS5Q-9nMrikbAch8--1" vertex="1">
                    <mxGeometry x="850" y="660" width="20" height="20" as="geometry"/>
                </mxCell>
                <mxCell id="IsbyjksBu4wv-zQFAn17-36" value="" style="ellipse;whiteSpace=wrap;html=1;aspect=fixed;fillColor=#e3c800;strokeColor=#B09500;fontColor=#ffffff;" parent="bhLoS5Q-9nMrikbAch8--1" vertex="1">
                    <mxGeometry x="960" y="540" width="20" height="20" as="geometry"/>
                </mxCell>
                <mxCell id="IsbyjksBu4wv-zQFAn17-37" value="" style="ellipse;whiteSpace=wrap;html=1;aspect=fixed;fillColor=#0050ef;strokeColor=#001DBC;fontColor=#ffffff;" parent="bhLoS5Q-9nMrikbAch8--1" vertex="1">
                    <mxGeometry x="1150" y="540" width="20" height="20" as="geometry"/>
                </mxCell>
            </root>
        </mxGraphModel>
    </diagram>
</mxfile>